<svg width="11" height="14" viewBox="0 0 11 14" fill="none" xmlns="http://www.w3.org/2000/svg">
<path d="M5.5 14L0.55 10.4C0.378125 10.2778 0.24349 10.1222 0.146094 9.93333C0.0486979 9.74445 0 9.54444 0 9.33333V1.33333C0 0.966667 0.134635 0.652778 0.403906 0.391667C0.673177 0.130556 0.996875 0 1.375 0H9.625C10.0031 0 10.3268 0.130556 10.5961 0.391667C10.8654 0.652778 11 0.966667 11 1.33333V9.33333C11 9.54444 10.9513 9.74445 10.8539 9.93333C10.7565 10.1222 10.6219 10.2778 10.45 10.4L5.5 14ZM4.77813 8.66667L8.6625 4.9L7.7 3.93333L4.77813 6.76667L3.33437 5.36667L2.3375 6.3L4.77813 8.66667Z" fill="#11578A"/>
</svg>
