<svg width="21" height="20" viewBox="0 0 21 20" fill="none" xmlns="http://www.w3.org/2000/svg">
<path d="M10.1668 15.8333C10.3316 15.8333 10.4928 15.7845 10.6298 15.6929C10.7668 15.6013 10.8737 15.4712 10.9367 15.3189C10.9998 15.1666 11.0163 14.9991 10.9842 14.8374C10.952 14.6758 10.8726 14.5273 10.7561 14.4107C10.6395 14.2942 10.4911 14.2148 10.3294 14.1827C10.1678 14.1505 10.0002 14.167 9.84793 14.2301C9.69565 14.2932 9.56551 14.4 9.47394 14.537C9.38237 14.6741 9.3335 14.8352 9.3335 15C9.3335 15.221 9.42129 15.433 9.57757 15.5893C9.73385 15.7455 9.94582 15.8333 10.1668 15.8333ZM14.3335 15.8333C14.4983 15.8333 14.6594 15.7845 14.7965 15.6929C14.9335 15.6013 15.0403 15.4712 15.1034 15.3189C15.1665 15.1666 15.183 14.9991 15.1508 14.8374C15.1187 14.6758 15.0393 14.5273 14.9228 14.4107C14.8062 14.2942 14.6577 14.2148 14.4961 14.1827C14.3344 14.1505 14.1669 14.167 14.0146 14.2301C13.8623 14.2932 13.7322 14.4 13.6406 14.537C13.549 14.6741 13.5002 14.8352 13.5002 15C13.5002 15.221 13.588 15.433 13.7442 15.5893C13.9005 15.7455 14.1125 15.8333 14.3335 15.8333ZM14.3335 12.5C14.4983 12.5 14.6594 12.4511 14.7965 12.3596C14.9335 12.268 15.0403 12.1378 15.1034 11.9856C15.1665 11.8333 15.183 11.6657 15.1508 11.5041C15.1187 11.3424 15.0393 11.194 14.9228 11.0774C14.8062 10.9609 14.6577 10.8815 14.4961 10.8493C14.3344 10.8172 14.1669 10.8337 14.0146 10.8968C13.8623 10.9598 13.7322 11.0666 13.6406 11.2037C13.549 11.3407 13.5002 11.5018 13.5002 11.6667C13.5002 11.8877 13.588 12.0996 13.7442 12.2559C13.9005 12.4122 14.1125 12.5 14.3335 12.5ZM10.1668 12.5C10.3316 12.5 10.4928 12.4511 10.6298 12.3596C10.7668 12.268 10.8737 12.1378 10.9367 11.9856C10.9998 11.8333 11.0163 11.6657 10.9842 11.5041C10.952 11.3424 10.8726 11.194 10.7561 11.0774C10.6395 10.9609 10.4911 10.8815 10.3294 10.8493C10.1678 10.8172 10.0002 10.8337 9.84793 10.8968C9.69565 10.9598 9.56551 11.0666 9.47394 11.2037C9.38237 11.3407 9.3335 11.5018 9.3335 11.6667C9.3335 11.8877 9.42129 12.0996 9.57757 12.2559C9.73385 12.4122 9.94582 12.5 10.1668 12.5ZM16.0002 2.5H15.1668V1.66667C15.1668 1.44565 15.079 1.23369 14.9228 1.07741C14.7665 0.92113 14.5545 0.833333 14.3335 0.833333C14.1125 0.833333 13.9005 0.92113 13.7442 1.07741C13.588 1.23369 13.5002 1.44565 13.5002 1.66667V2.5H6.8335V1.66667C6.8335 1.44565 6.7457 1.23369 6.58942 1.07741C6.43314 0.92113 6.22118 0.833333 6.00016 0.833333C5.77915 0.833333 5.56719 0.92113 5.41091 1.07741C5.25463 1.23369 5.16683 1.44565 5.16683 1.66667V2.5H4.3335C3.67045 2.5 3.03457 2.76339 2.56573 3.23223C2.09689 3.70107 1.8335 4.33696 1.8335 5V16.6667C1.8335 17.3297 2.09689 17.9656 2.56573 18.4344C3.03457 18.9033 3.67045 19.1667 4.3335 19.1667H16.0002C16.6632 19.1667 17.2991 18.9033 17.7679 18.4344C18.2368 17.9656 18.5002 17.3297 18.5002 16.6667V5C18.5002 4.33696 18.2368 3.70107 17.7679 3.23223C17.2991 2.76339 16.6632 2.5 16.0002 2.5ZM16.8335 16.6667C16.8335 16.8877 16.7457 17.0996 16.5894 17.2559C16.4331 17.4122 16.2212 17.5 16.0002 17.5H4.3335C4.11248 17.5 3.90052 17.4122 3.74424 17.2559C3.58796 17.0996 3.50016 16.8877 3.50016 16.6667V9.16667H16.8335V16.6667ZM16.8335 7.5H3.50016V5C3.50016 4.77899 3.58796 4.56702 3.74424 4.41074C3.90052 4.25446 4.11248 4.16667 4.3335 4.16667H5.16683V5C5.16683 5.22101 5.25463 5.43297 5.41091 5.58925C5.56719 5.74553 5.77915 5.83333 6.00016 5.83333C6.22118 5.83333 6.43314 5.74553 6.58942 5.58925C6.7457 5.43297 6.8335 5.22101 6.8335 5V4.16667H13.5002V5C13.5002 5.22101 13.588 5.43297 13.7442 5.58925C13.9005 5.74553 14.1125 5.83333 14.3335 5.83333C14.5545 5.83333 14.7665 5.74553 14.9228 5.58925C15.079 5.43297 15.1668 5.22101 15.1668 5V4.16667H16.0002C16.2212 4.16667 16.4331 4.25446 16.5894 4.41074C16.7457 4.56702 16.8335 4.77899 16.8335 5V7.5ZM6.00016 12.5C6.16498 12.5 6.3261 12.4511 6.46314 12.3596C6.60018 12.268 6.70699 12.1378 6.77006 11.9856C6.83314 11.8333 6.84964 11.6657 6.81748 11.5041C6.78533 11.3424 6.70596 11.194 6.58942 11.0774C6.47287 10.9609 6.32439 10.8815 6.16274 10.8493C6.00109 10.8172 5.83353 10.8337 5.68126 10.8968C5.52899 10.9598 5.39884 11.0666 5.30727 11.2037C5.2157 11.3407 5.16683 11.5018 5.16683 11.6667C5.16683 11.8877 5.25463 12.0996 5.41091 12.2559C5.56719 12.4122 5.77915 12.5 6.00016 12.5ZM6.00016 15.8333C6.16498 15.8333 6.3261 15.7845 6.46314 15.6929C6.60018 15.6013 6.70699 15.4712 6.77006 15.3189C6.83314 15.1666 6.84964 14.9991 6.81748 14.8374C6.78533 14.6758 6.70596 14.5273 6.58942 14.4107C6.47287 14.2942 6.32439 14.2148 6.16274 14.1827C6.00109 14.1505 5.83353 14.167 5.68126 14.2301C5.52899 14.2932 5.39884 14.4 5.30727 14.537C5.2157 14.6741 5.16683 14.8352 5.16683 15C5.16683 15.221 5.25463 15.433 5.41091 15.5893C5.56719 15.7455 5.77915 15.8333 6.00016 15.8333Z" fill="#8BC523"/>
</svg>
