<svg width="21" height="20" viewBox="0 0 21 20" fill="none" xmlns="http://www.w3.org/2000/svg">
<path d="M10.1666 15.8334C10.3314 15.8334 10.4925 15.7845 10.6296 15.6929C10.7666 15.6014 10.8734 15.4712 10.9365 15.3189C10.9996 15.1667 11.0161 14.9991 10.9839 14.8375C10.9518 14.6758 10.8724 14.5273 10.7558 14.4108C10.6393 14.2942 10.4908 14.2149 10.3292 14.1827C10.1675 14.1506 9.99995 14.1671 9.84768 14.2301C9.69541 14.2932 9.56526 14.4 9.47369 14.5371C9.38213 14.6741 9.33325 14.8352 9.33325 15C9.33325 15.2211 9.42105 15.433 9.57733 15.5893C9.73361 15.7456 9.94557 15.8334 10.1666 15.8334ZM14.3333 15.8334C14.4981 15.8334 14.6592 15.7845 14.7962 15.6929C14.9333 15.6014 15.0401 15.4712 15.1032 15.3189C15.1662 15.1667 15.1827 14.9991 15.1506 14.8375C15.1184 14.6758 15.0391 14.5273 14.9225 14.4108C14.806 14.2942 14.6575 14.2149 14.4958 14.1827C14.3342 14.1506 14.1666 14.1671 14.0144 14.2301C13.8621 14.2932 13.7319 14.4 13.6404 14.5371C13.5488 14.6741 13.4999 14.8352 13.4999 15C13.4999 15.2211 13.5877 15.433 13.744 15.5893C13.9003 15.7456 14.1122 15.8334 14.3333 15.8334ZM14.3333 12.5C14.4981 12.5 14.6592 12.4512 14.7962 12.3596C14.9333 12.268 15.0401 12.1379 15.1032 11.9856C15.1662 11.8333 15.1827 11.6658 15.1506 11.5041C15.1184 11.3425 15.0391 11.194 14.9225 11.0775C14.806 10.9609 14.6575 10.8815 14.4958 10.8494C14.3342 10.8172 14.1666 10.8337 14.0144 10.8968C13.8621 10.9599 13.7319 11.0667 13.6404 11.2037C13.5488 11.3408 13.4999 11.5019 13.4999 11.6667C13.4999 11.8877 13.5877 12.0997 13.744 12.256C13.9003 12.4122 14.1122 12.5 14.3333 12.5ZM10.1666 12.5C10.3314 12.5 10.4925 12.4512 10.6296 12.3596C10.7666 12.268 10.8734 12.1379 10.9365 11.9856C10.9996 11.8333 11.0161 11.6658 10.9839 11.5041C10.9518 11.3425 10.8724 11.194 10.7558 11.0775C10.6393 10.9609 10.4908 10.8815 10.3292 10.8494C10.1675 10.8172 9.99995 10.8337 9.84768 10.8968C9.69541 10.9599 9.56526 11.0667 9.47369 11.2037C9.38213 11.3408 9.33325 11.5019 9.33325 11.6667C9.33325 11.8877 9.42105 12.0997 9.57733 12.256C9.73361 12.4122 9.94557 12.5 10.1666 12.5ZM15.9999 2.50004H15.1666V1.66671C15.1666 1.44569 15.0788 1.23373 14.9225 1.07745C14.7662 0.921171 14.5543 0.833374 14.3333 0.833374C14.1122 0.833374 13.9003 0.921171 13.744 1.07745C13.5877 1.23373 13.4999 1.44569 13.4999 1.66671V2.50004H6.83325V1.66671C6.83325 1.44569 6.74545 1.23373 6.58917 1.07745C6.43289 0.921171 6.22093 0.833374 5.99992 0.833374C5.77891 0.833374 5.56694 0.921171 5.41066 1.07745C5.25438 1.23373 5.16659 1.44569 5.16659 1.66671V2.50004H4.33325C3.67021 2.50004 3.03433 2.76343 2.56549 3.23227C2.09664 3.70111 1.83325 4.337 1.83325 5.00004V16.6667C1.83325 17.3297 2.09664 17.9656 2.56549 18.4345C3.03433 18.9033 3.67021 19.1667 4.33325 19.1667H15.9999C16.663 19.1667 17.2988 18.9033 17.7677 18.4345C18.2365 17.9656 18.4999 17.3297 18.4999 16.6667V5.00004C18.4999 4.337 18.2365 3.70111 17.7677 3.23227C17.2988 2.76343 16.663 2.50004 15.9999 2.50004ZM16.8333 16.6667C16.8333 16.8877 16.7455 17.0997 16.5892 17.256C16.4329 17.4122 16.2209 17.5 15.9999 17.5H4.33325C4.11224 17.5 3.90028 17.4122 3.744 17.256C3.58772 17.0997 3.49992 16.8877 3.49992 16.6667V9.16671H16.8333V16.6667ZM16.8333 7.50004H3.49992V5.00004C3.49992 4.77903 3.58772 4.56707 3.744 4.41078C3.90028 4.2545 4.11224 4.16671 4.33325 4.16671H5.16659V5.00004C5.16659 5.22105 5.25438 5.43302 5.41066 5.5893C5.56694 5.74558 5.77891 5.83337 5.99992 5.83337C6.22093 5.83337 6.43289 5.74558 6.58917 5.5893C6.74545 5.43302 6.83325 5.22105 6.83325 5.00004V4.16671H13.4999V5.00004C13.4999 5.22105 13.5877 5.43302 13.744 5.5893C13.9003 5.74558 14.1122 5.83337 14.3333 5.83337C14.5543 5.83337 14.7662 5.74558 14.9225 5.5893C15.0788 5.43302 15.1666 5.22105 15.1666 5.00004V4.16671H15.9999C16.2209 4.16671 16.4329 4.2545 16.5892 4.41078C16.7455 4.56707 16.8333 4.77903 16.8333 5.00004V7.50004ZM5.99992 12.5C6.16474 12.5 6.32585 12.4512 6.46289 12.3596C6.59993 12.268 6.70675 12.1379 6.76982 11.9856C6.83289 11.8333 6.84939 11.6658 6.81724 11.5041C6.78509 11.3425 6.70572 11.194 6.58917 11.0775C6.47263 10.9609 6.32414 10.8815 6.16249 10.8494C6.00084 10.8172 5.83329 10.8337 5.68102 10.8968C5.52874 10.9599 5.3986 11.0667 5.30703 11.2037C5.21546 11.3408 5.16659 11.5019 5.16659 11.6667C5.16659 11.8877 5.25438 12.0997 5.41066 12.256C5.56694 12.4122 5.77891 12.5 5.99992 12.5ZM5.99992 15.8334C6.16474 15.8334 6.32585 15.7845 6.46289 15.6929C6.59993 15.6014 6.70675 15.4712 6.76982 15.3189C6.83289 15.1667 6.84939 14.9991 6.81724 14.8375C6.78509 14.6758 6.70572 14.5273 6.58917 14.4108C6.47263 14.2942 6.32414 14.2149 6.16249 14.1827C6.00084 14.1506 5.83329 14.1671 5.68102 14.2301C5.52874 14.2932 5.3986 14.4 5.30703 14.5371C5.21546 14.6741 5.16659 14.8352 5.16659 15C5.16659 15.2211 5.25438 15.433 5.41066 15.5893C5.56694 15.7456 5.77891 15.8334 5.99992 15.8334Z" fill="#9A9A9A"/>
</svg>
