<svg width="44" height="44" viewBox="0 0 44 44" fill="none" xmlns="http://www.w3.org/2000/svg">
<path d="M22 44C34.1503 44 44 34.1503 44 22C44 9.84974 34.1503 0 22 0C9.84974 0 0 9.84974 0 22C0 34.1503 9.84974 44 22 44Z" fill="#8BC523"/>
<path d="M21.9999 41.002C32.4944 41.002 41.0019 32.4945 41.0019 22C41.0019 11.5055 32.4944 2.99805 21.9999 2.99805C11.5054 2.99805 2.99792 11.5055 2.99792 22C2.99792 32.4945 11.5054 41.002 21.9999 41.002Z" fill="#8BC523"/>
<path d="M19.585 28.9556L13.6903 23.0609L15.8121 20.9391L19.585 24.712L28.1916 16.1053L30.3134 18.2271L19.585 28.9556Z" fill="white"/>
</svg>
