<svg width="16" height="15" viewBox="0 0 16 15" fill="none" xmlns="http://www.w3.org/2000/svg">
<mask id="mask0_818_10141" style="mask-type:alpha" maskUnits="userSpaceOnUse" x="0" y="0" width="16" height="15">
<rect x="0.5" width="15" height="15" fill="#D9D9D9"/>
</mask>
<g mask="url(#mask0_818_10141)">
<path d="M0.5 11.25V10.2656C0.5 9.81771 0.729167 9.45312 1.1875 9.17188C1.64583 8.89062 2.25 8.75 3 8.75C3.13542 8.75 3.26562 8.7526 3.39062 8.75781C3.51562 8.76302 3.63542 8.77604 3.75 8.79688C3.60417 9.01562 3.49479 9.24479 3.42188 9.48438C3.34896 9.72396 3.3125 9.97396 3.3125 10.2344V11.25H0.5ZM4.25 11.25V10.2344C4.25 9.90104 4.34115 9.59635 4.52344 9.32031C4.70573 9.04427 4.96354 8.80208 5.29688 8.59375C5.63021 8.38542 6.02865 8.22917 6.49219 8.125C6.95573 8.02083 7.45833 7.96875 8 7.96875C8.55208 7.96875 9.0599 8.02083 9.52344 8.125C9.98698 8.22917 10.3854 8.38542 10.7188 8.59375C11.0521 8.80208 11.3073 9.04427 11.4844 9.32031C11.6615 9.59635 11.75 9.90104 11.75 10.2344V11.25H4.25ZM12.6875 11.25V10.2344C12.6875 9.96354 12.6536 9.70833 12.5859 9.46875C12.5182 9.22917 12.4167 9.00521 12.2812 8.79688C12.3958 8.77604 12.513 8.76302 12.6328 8.75781C12.7526 8.7526 12.875 8.75 13 8.75C13.75 8.75 14.3542 8.88802 14.8125 9.16406C15.2708 9.4401 15.5 9.80729 15.5 10.2656V11.25H12.6875ZM5.57812 10H10.4375C10.3333 9.79167 10.0443 9.60938 9.57031 9.45312C9.09635 9.29688 8.57292 9.21875 8 9.21875C7.42708 9.21875 6.90365 9.29688 6.42969 9.45312C5.95573 9.60938 5.67188 9.79167 5.57812 10ZM3 8.125C2.65625 8.125 2.36198 8.0026 2.11719 7.75781C1.8724 7.51302 1.75 7.21875 1.75 6.875C1.75 6.52083 1.8724 6.22396 2.11719 5.98438C2.36198 5.74479 2.65625 5.625 3 5.625C3.35417 5.625 3.65104 5.74479 3.89062 5.98438C4.13021 6.22396 4.25 6.52083 4.25 6.875C4.25 7.21875 4.13021 7.51302 3.89062 7.75781C3.65104 8.0026 3.35417 8.125 3 8.125ZM13 8.125C12.6562 8.125 12.362 8.0026 12.1172 7.75781C11.8724 7.51302 11.75 7.21875 11.75 6.875C11.75 6.52083 11.8724 6.22396 12.1172 5.98438C12.362 5.74479 12.6562 5.625 13 5.625C13.3542 5.625 13.651 5.74479 13.8906 5.98438C14.1302 6.22396 14.25 6.52083 14.25 6.875C14.25 7.21875 14.1302 7.51302 13.8906 7.75781C13.651 8.0026 13.3542 8.125 13 8.125ZM8 7.5C7.47917 7.5 7.03646 7.31771 6.67188 6.95312C6.30729 6.58854 6.125 6.14583 6.125 5.625C6.125 5.09375 6.30729 4.64844 6.67188 4.28906C7.03646 3.92969 7.47917 3.75 8 3.75C8.53125 3.75 8.97656 3.92969 9.33594 4.28906C9.69531 4.64844 9.875 5.09375 9.875 5.625C9.875 6.14583 9.69531 6.58854 9.33594 6.95312C8.97656 7.31771 8.53125 7.5 8 7.5ZM8 6.25C8.17708 6.25 8.32552 6.1901 8.44531 6.07031C8.5651 5.95052 8.625 5.80208 8.625 5.625C8.625 5.44792 8.5651 5.29948 8.44531 5.17969C8.32552 5.0599 8.17708 5 8 5C7.82292 5 7.67448 5.0599 7.55469 5.17969C7.4349 5.29948 7.375 5.44792 7.375 5.625C7.375 5.80208 7.4349 5.95052 7.55469 6.07031C7.67448 6.1901 7.82292 6.25 8 6.25Z" fill="#11578A"/>
</g>
</svg>
