<svg width="45" height="44" viewBox="0 0 45 44" fill="none" xmlns="http://www.w3.org/2000/svg">
<rect x="0.166748" width="33" height="33" rx="4" fill="#8BC523" fill-opacity="0.2"/>
<g clip-path="url(#clip0_392_16261)">
<path d="M21.6564 31.9386H19.8156L19.3119 31.2664C19.0927 30.9741 18.743 30.802 18.3698 30.802H17.9749V8.08618H17.9782C20.0851 8.36548 21.6564 10.1111 21.6564 12.175V31.9403V31.9386Z" fill="#D2E9F7"/>
<path d="M6.59527 10.1793H4.25244V32.913H6.59527V10.1793Z" fill="#8BC523"/>
<path d="M38.8929 10.1793H36.55V33.2377H38.8929V10.1793Z" fill="#8BC523"/>
<path d="M38.5583 33.2377H27.2023C26.7638 33.2377 26.3321 33.3351 25.9405 33.5235L23.6194 34.6326C23.5274 34.6764 23.4269 34.6992 23.3249 34.6992H19.9947C19.8926 34.6992 19.7922 34.6764 19.7002 34.6326L17.5314 33.5998C17.031 33.3611 16.4821 33.2377 15.9249 33.2377H5.59131V30.6396H18.3597C18.579 30.6396 18.7915 30.7175 18.9555 30.8604L20.0131 31.7763H23.0839L23.8855 30.8848C24.026 30.7289 24.2285 30.6396 24.4411 30.6396H38.5583V33.2377Z" fill="#8BC523"/>
<path d="M31.8242 28.5042L33.7621 35.5322C33.8323 35.7855 34.0315 35.9852 34.2909 36.0599C34.5101 36.1232 34.741 36.0031 34.8063 35.7903L35.9727 32.0036L39.9873 30.8214C40.1915 30.7613 40.3304 30.5795 40.3304 30.3716C40.3304 30.0988 40.1413 29.8617 39.8702 29.7919L32.4484 27.8953C32.3011 27.8579 32.1455 27.8855 32.0217 27.97C31.846 28.0901 31.7656 28.3045 31.8225 28.5058L31.8242 28.5042Z" fill="#11578A"/>
<path d="M38.8092 27.6356C38.6252 27.6356 38.4746 27.4894 38.4746 27.3108V10.6649C38.4746 10.621 38.4377 10.5853 38.3926 10.5853H38.1399C37.9558 10.5853 37.8052 10.4392 37.8052 10.2606C37.8052 10.0819 37.9558 9.93579 38.1399 9.93579H38.3926C38.8076 9.93579 39.1439 10.2622 39.1439 10.6649V27.3108C39.1439 27.4894 38.9933 27.6356 38.8092 27.6356Z" fill="#3D5A80"/>
<path d="M16.6667 8H6.16675V31H18.1667C19.3667 31 19.6667 31.6667 19.6667 32H21.1667V12.5C21.1667 9.3 18.1667 8.16667 16.6667 8Z" fill="white"/>
<path d="M25.6667 8C22.8667 8 21.8334 10.3333 21.6667 11.5V32H22.6667L23.6667 31H36.1667V8H25.6667Z" fill="white"/>
<path d="M23.3114 34.9428H19.5394L18.0902 34.1715C17.2401 33.72 16.2795 33.4813 15.3106 33.4813H4.2056C3.9094 33.4813 3.66675 33.2475 3.66675 32.9585V10.6649C3.66675 10.2622 4.00311 9.93579 4.41813 9.93579H4.67082C4.8549 9.93579 5.00551 10.0819 5.00551 10.2606C5.00551 10.4392 4.8549 10.5853 4.67082 10.5853H4.41813C4.37294 10.5853 4.33613 10.621 4.33613 10.6649V32.8318H15.3123C16.3933 32.8318 17.466 33.0981 18.4132 33.6031L19.7118 34.2933H23.1407L24.4393 33.6031C25.3865 33.0997 26.4591 32.8318 27.5402 32.8318H30.7783C30.9624 32.8318 31.113 32.978 31.113 33.1566C31.113 33.3352 30.9624 33.4813 30.7783 33.4813H27.5402C26.5713 33.4813 25.6107 33.72 24.7606 34.1715L23.3114 34.9428Z" fill="#3D5A80"/>
<path d="M36.2991 26.8236C36.115 26.8236 35.9644 26.6774 35.9644 26.4988V8.17227C35.9644 8.15928 35.9543 8.14953 35.941 8.14953H26.3102C24.7841 8.14953 23.3583 8.87701 22.4931 10.0965C21.9576 10.85 21.6765 11.7317 21.6765 12.6475C21.6765 12.8262 21.5258 12.9723 21.3418 12.9723C21.1577 12.9723 21.0071 12.8262 21.0071 12.6475C21.0071 11.6002 21.3301 10.5918 21.9425 9.7279C22.9332 8.33303 24.5665 7.5 26.3119 7.5H35.9426C36.3242 7.5 36.6354 7.80203 36.6354 8.17227V26.4988C36.6354 26.6774 36.4848 26.8236 36.3007 26.8236H36.2991Z" fill="#3D5A80"/>
<path d="M23.0202 32.1822H19.5779L19.0775 31.4726C18.8884 31.2047 18.5771 31.0456 18.2441 31.0456H6.5216C6.23878 31.0456 6.00952 30.8231 6.00952 30.5487V8.17227C6.00952 7.80203 6.32078 7.5 6.70233 7.5H16.4585C18.204 7.5 19.8372 8.33303 20.8279 9.7279C21.4404 10.5902 21.7634 11.6002 21.7634 12.6475C21.7634 12.8262 21.6128 12.9723 21.4287 12.9723C21.2446 12.9723 21.094 12.8262 21.094 12.6475C21.094 11.7333 20.8112 10.85 20.2774 10.0965C19.4122 8.87701 17.9847 8.14953 16.4602 8.14953H6.70233C6.68894 8.14953 6.6789 8.15928 6.6789 8.17227V30.396H18.2424C18.798 30.396 19.3151 30.6607 19.6281 31.1056L19.9293 31.5327H22.6654L22.9666 31.1056C23.2795 30.6607 23.7983 30.396 24.3522 30.396H29.9382C30.1223 30.396 30.2729 30.5422 30.2729 30.7208C30.2729 30.8994 30.1223 31.0456 29.9382 31.0456H24.3522C24.0192 31.0456 23.7063 31.2047 23.5188 31.4726L23.0185 32.1822H23.0202Z" fill="#3D5A80"/>
<path d="M21.3935 30.2336C21.2094 30.2336 21.0588 30.0875 21.0588 29.9088L21.0706 12.0467C21.0706 11.8681 21.2212 11.7219 21.4052 11.7219C21.5893 11.7219 21.7399 11.8681 21.7399 12.0467L21.7282 29.9088C21.7282 30.0875 21.5776 30.2336 21.3935 30.2336Z" fill="#3D5A80"/>
<path d="M31.6667 28L34.1667 36H34.6667L36.1667 32L40.1667 30.5V30L33.1667 28H31.6667Z" fill="white"/>
<path d="M34.3412 36.5C34.2642 36.5 34.1856 36.4903 34.1069 36.4708C33.794 36.3896 33.5563 36.1607 33.471 35.857L31.4294 28.6082C31.344 28.3029 31.4294 27.9863 31.6603 27.7622C31.8913 27.5381 32.2176 27.4537 32.5322 27.5381L40.0025 29.5192C40.3154 29.602 40.5514 29.8326 40.635 30.1362C40.7187 30.4399 40.6317 30.7549 40.4024 30.9758L40.3422 31.0342L36.2556 32.2212L35.0323 36.1866L34.9721 36.2451C34.7997 36.4124 34.5755 36.5017 34.3412 36.5017V36.5ZM32.2929 28.1552C32.2109 28.1552 32.1557 28.199 32.1339 28.2201C32.1055 28.2477 32.0435 28.3241 32.0753 28.4361L34.1169 35.6849C34.1487 35.7969 34.2408 35.831 34.2793 35.8408C34.3094 35.8489 34.3763 35.8586 34.4466 35.8229L35.7201 31.6967L39.9723 30.461C40.0092 30.3944 39.9991 30.3279 39.9908 30.2986C39.9807 30.2613 39.9439 30.172 39.8301 30.1411L32.3598 28.16C32.3381 28.1536 32.3163 28.1519 32.2962 28.1519L32.2929 28.1552Z" fill="#3D5A80"/>
<path d="M28.936 24.3878C28.7519 24.3878 28.6013 24.2417 28.6013 24.0631V23.2512C28.6013 23.0725 28.7519 22.9264 28.936 22.9264C29.1201 22.9264 29.2707 23.0725 29.2707 23.2512V24.0631C29.2707 24.2417 29.1201 24.3878 28.936 24.3878Z" fill="#3D5A80"/>
<path d="M28.936 28.285C28.7519 28.285 28.6013 28.1389 28.6013 27.9603V27.3107C28.6013 27.1321 28.7519 26.986 28.936 26.986C29.1201 26.986 29.2707 27.1321 29.2707 27.3107V27.9603C29.2707 28.1389 29.1201 28.285 28.936 28.285Z" fill="#3D5A80"/>
<path d="M31.2788 26.0117H30.4421C30.258 26.0117 30.1074 25.8655 30.1074 25.6869C30.1074 25.5083 30.258 25.3621 30.4421 25.3621H31.2788C31.4629 25.3621 31.6135 25.5083 31.6135 25.6869C31.6135 25.8655 31.4629 26.0117 31.2788 26.0117Z" fill="#3D5A80"/>
<path d="M27.4299 26.0117H26.7605C26.5764 26.0117 26.4258 25.8655 26.4258 25.6869C26.4258 25.5083 26.5764 25.3621 26.7605 25.3621H27.4299C27.6139 25.3621 27.7645 25.5083 27.7645 25.6869C27.7645 25.8655 27.6139 26.0117 27.4299 26.0117Z" fill="#3D5A80"/>
</g>
<defs>
<clipPath id="clip0_392_16261">
<rect width="37" height="29" fill="white" transform="translate(3.66675 7.5)"/>
</clipPath>
</defs>
</svg>
