<svg width="45" height="44" viewBox="0 0 45 44" fill="none" xmlns="http://www.w3.org/2000/svg">
<rect x="0.833252" width="33" height="33" rx="4" fill="#8BC523" fill-opacity="0.2"/>
<rect x="0.833252" width="33" height="33" rx="4" fill="#8BC523" fill-opacity="0.2"/>
<g clip-path="url(#clip0_392_16225)">
<path d="M37.3333 21.5H8.33325L11.8333 35.5H33.8333L37.3333 21.5Z" fill="white"/>
<path d="M16.363 15.6901V11.3573C16.363 10.846 16.801 10.4319 17.3419 10.4319H17.8926V10.3202C17.8926 9.22119 18.834 8.32992 19.9979 8.3286L29.9905 8.31677V10.6317C29.9905 11.7596 29.0199 12.6732 27.8254 12.6666L19.0078 12.6206C18.4655 12.618 18.0177 13.0176 17.9885 13.529L17.8676 15.6888H16.3616L16.363 15.6901Z" fill="#8BC523"/>
<path d="M28.4802 15.5402L28.7959 12.4037H26.8839L26.1622 20.6288C26.1482 20.7827 26.069 20.9286 26.0732 21.0797H27.9894L28.2536 18.168C30.7093 17.2439 28.4802 15.5402 28.4802 15.5402Z" fill="#D2E9F7"/>
<path d="M37.0059 21.3427H35.9518L32.6882 33.8796C32.6159 34.1596 32.3503 34.3568 32.0444 34.3568H11.3208L11.5864 35.2547C11.6823 35.578 11.9938 35.8028 12.3498 35.8028H33.4335C33.7381 35.8028 34.0037 35.6057 34.0774 35.3257L37.5482 21.9961C37.6344 21.6635 37.3688 21.3414 37.0059 21.3414V21.3427Z" fill="#D2E9F7"/>
<path d="M23.6884 27.7841H22.0016L21.1589 29.1643L22.0016 30.5446H23.6884L24.5311 29.1643L23.6884 27.7841Z" fill="#11578A"/>
<path d="M33.9534 13.2582C33.8004 13.2582 33.6753 13.1399 33.6753 12.9953V12.338C33.6753 12.1934 33.8004 12.0751 33.9534 12.0751C34.1064 12.0751 34.2315 12.1934 34.2315 12.338V12.9953C34.2315 13.1399 34.1064 13.2582 33.9534 13.2582Z" fill="#3D5A80"/>
<path d="M33.9534 16.4131C33.8004 16.4131 33.6753 16.2948 33.6753 16.1502V15.6244C33.6753 15.4798 33.8004 15.3615 33.9534 15.3615C34.1064 15.3615 34.2315 15.4798 34.2315 15.6244V16.1502C34.2315 16.2948 34.1064 16.4131 33.9534 16.4131Z" fill="#3D5A80"/>
<path d="M35.9004 14.5727H35.2051C35.0522 14.5727 34.927 14.4544 34.927 14.3098C34.927 14.1652 35.0522 14.0469 35.2051 14.0469H35.9004C36.0534 14.0469 36.1785 14.1652 36.1785 14.3098C36.1785 14.4544 36.0534 14.5727 35.9004 14.5727Z" fill="#3D5A80"/>
<path d="M32.702 14.5727H32.1458C31.9928 14.5727 31.8677 14.4544 31.8677 14.3098C31.8677 14.1652 31.9928 14.0469 32.1458 14.0469H32.702C32.855 14.0469 32.9801 14.1652 32.9801 14.3098C32.9801 14.4544 32.855 14.5727 32.702 14.5727Z" fill="#3D5A80"/>
<path d="M28.0618 20.2201C28.0549 20.2201 28.0465 20.2201 28.0396 20.2201C27.8866 20.2083 27.7726 20.0821 27.7851 19.9375L27.952 17.9761L28.13 17.9222C28.5207 17.8053 28.8114 17.5121 28.9073 17.1401L28.9588 16.939C29.0046 16.7615 28.9685 16.5814 28.8572 16.4329C28.746 16.283 28.5708 16.187 28.3775 16.1673L28.1036 16.141L28.3344 13.8511C28.3483 13.7065 28.4832 13.6013 28.6375 13.6145C28.7905 13.6289 28.9031 13.7564 28.8878 13.901L28.7057 15.702C28.9476 15.7808 29.1604 15.9294 29.3106 16.1305C29.5122 16.4013 29.5817 16.7418 29.4983 17.0638L29.4468 17.265C29.3217 17.7514 28.9588 18.1575 28.4762 18.3613L28.3386 19.9808C28.3274 20.1189 28.2051 20.2227 28.0618 20.2227V20.2201Z" fill="#3D5A80"/>
<path d="M18.3459 20.2161C18.2027 20.2161 18.0803 20.1123 18.0692 19.9743L17.9385 18.4297C17.3628 18.2653 16.9164 17.825 16.7718 17.2623C16.7356 17.1217 16.8274 16.9784 16.9762 16.9442C17.1264 16.9087 17.2766 16.9968 17.3127 17.1375C17.4226 17.5634 17.7883 17.8854 18.2458 17.959L18.4599 17.9932L18.624 19.9322C18.6365 20.0768 18.5225 20.2043 18.3695 20.2148C18.3626 20.2148 18.3543 20.2148 18.3473 20.2148L18.3459 20.2161Z" fill="#3D5A80"/>
<path d="M17.5951 16.1502H16.5215C16.242 16.1502 16.0154 15.9359 16.0154 15.6717V10.988L16.0293 10.9472C16.2532 10.311 16.8386 9.99284 17.6076 10.0835C17.7731 8.88861 18.8354 7.99866 20.1162 7.99866H29.9989C30.2617 7.99866 30.4772 8.2011 30.4772 8.45086V10.4424C30.4772 11.7767 29.3286 12.8625 27.9172 12.8625H18.9634C18.4878 12.8625 18.1012 13.228 18.1012 13.6775V15.6704C18.1012 15.9346 17.8746 16.1489 17.5951 16.1489V16.1502ZM16.5716 15.6244H17.545V13.6788C17.545 12.9388 18.1819 12.338 18.9634 12.338H27.9158C29.0213 12.338 29.9196 11.4875 29.9196 10.4437V8.52579H20.1162C19.0927 8.52579 18.2486 9.25537 18.1513 10.2216C18.1388 10.3478 18.072 10.4621 17.9691 10.5357C17.869 10.608 17.7452 10.637 17.6187 10.6159C17.246 10.5555 16.7649 10.587 16.5716 11.0734V15.6244Z" fill="#3D5A80"/>
<path d="M33.4043 36H12.2622C11.7699 36 11.3513 35.6831 11.2429 35.2296L7.85408 21.9723C7.79846 21.7344 7.85826 21.4939 8.01678 21.3072C8.1753 21.1205 8.41031 21.014 8.66339 21.014H37.0044C37.2575 21.014 37.4925 21.1205 37.6511 21.3072C37.8096 21.4939 37.8694 21.7331 37.8151 21.9671L34.4236 35.2349C34.3165 35.6845 33.8965 36.0013 33.4057 36.0013L33.4043 36ZM8.662 21.5399C8.57857 21.5399 8.5007 21.5754 8.44925 21.6358C8.39779 21.6963 8.37694 21.7765 8.39501 21.8527L11.7838 35.11C11.8353 35.3256 12.0313 35.4741 12.2608 35.4741H33.4043C33.6337 35.4741 33.8298 35.3256 33.8812 35.1139L37.2728 21.8475C37.2895 21.7765 37.27 21.6963 37.2172 21.6358C37.1644 21.5754 37.0879 21.5399 37.0044 21.5399H8.662Z" fill="#3D5A80"/>
<path d="M23.5216 30.8732H22.1004C21.8946 30.8732 21.7041 30.7694 21.6012 30.6011L20.8907 29.4364C20.7878 29.2682 20.7878 29.0591 20.8907 28.8909L21.6012 27.7275C21.7041 27.5592 21.8946 27.4554 22.1004 27.4554H23.5216C23.7274 27.4554 23.9179 27.5592 24.0208 27.7275L24.7314 28.8922C24.8343 29.0605 24.8343 29.2695 24.7314 29.4364L24.0208 30.6011C23.9179 30.7694 23.7274 30.8732 23.5216 30.8732ZM22.1004 27.9812C22.0935 27.9812 22.0865 27.9851 22.0838 27.9904L21.3732 29.1551C21.3732 29.1551 21.369 29.1682 21.3732 29.1735L22.0838 30.3382C22.0838 30.3382 22.0935 30.3474 22.1004 30.3474H23.5216C23.5285 30.3474 23.5355 30.3435 23.5383 30.3382L24.2489 29.1735C24.2489 29.1735 24.253 29.1604 24.2489 29.1551L23.5383 27.9904C23.5383 27.9904 23.5285 27.9812 23.5216 27.9812H22.1004Z" fill="#3D5A80"/>
<path d="M21.4386 17.4648H20.8824C20.7294 17.4648 20.6042 17.3465 20.6042 17.2019C20.6042 17.0573 20.7294 16.939 20.8824 16.939H21.4386C21.5915 16.939 21.7167 17.0573 21.7167 17.2019C21.7167 17.3465 21.5915 17.4648 21.4386 17.4648Z" fill="#3D5A80"/>
<path d="M25.6101 17.4648H24.9148C24.7619 17.4648 24.6367 17.3465 24.6367 17.2019C24.6367 17.0573 24.7619 16.939 24.9148 16.939H25.6101C25.7631 16.939 25.8882 17.0573 25.8882 17.2019C25.8882 17.3465 25.7631 17.4648 25.6101 17.4648Z" fill="#3D5A80"/>
<path d="M23.2461 20.2253C23.0932 20.2253 22.968 20.107 22.968 19.9624V18.5164C22.968 18.3718 23.0932 18.2535 23.2461 18.2535C23.3991 18.2535 23.5242 18.3718 23.5242 18.5164V19.9624C23.5242 20.107 23.3991 20.2253 23.2461 20.2253Z" fill="#3D5A80"/>
</g>
<defs>
<clipPath id="clip0_392_16225">
<rect width="30" height="28" fill="white" transform="translate(7.83325 8)"/>
</clipPath>
</defs>
</svg>
