<svg width="45" height="44" viewBox="0 0 45 44" fill="none" xmlns="http://www.w3.org/2000/svg">
<rect x="0.5" width="33" height="33" rx="4" fill="#8BC523" fill-opacity="0.2"/>
<g clip-path="url(#clip0_392_16197)">
<rect x="16.5" y="7.50006" width="26" height="23" rx="2" fill="white"/>
<path d="M10.1108 18.8375C9.66394 18.6703 9.2448 18.6788 8.86182 18.7783C9.78097 19.0175 10.4597 19.8451 10.4597 20.8358C10.4597 21.8264 9.78097 22.6541 8.86182 22.8933C9.03416 22.9378 9.21501 22.9653 9.40224 22.9653C10.6022 22.9653 11.5703 21.9831 11.5405 20.7829C11.5193 19.9086 10.932 19.1445 10.1086 18.8375H10.1108Z" fill="#D2E9F7"/>
<path d="M3.03198 35.7591V26.4178C3.03198 25.7298 3.43198 25.1054 4.05751 24.8132L5.44049 24.1676C5.86602 23.9686 6.33624 23.7697 6.61496 24.1486L7.91283 25.5287L9.44262 27.0803L11.849 23.9073C12.1384 23.6088 12.583 23.5241 12.9618 23.6913L21.383 23.776C21.7554 23.9411 22.132 25.6981 20.5724 26.2908C18.3767 27.1269 13.032 27.1121 13.032 27.5481V35.7549H3.03198V35.7591Z" fill="#8BC523"/>
<path d="M17.6278 8.24091H40.9895C41.6469 8.24091 42.181 8.77222 42.181 9.42631V13.5329H16.4363V9.42631C16.4363 8.77222 16.9703 8.24091 17.6278 8.24091Z" fill="#8BC523"/>
<path d="M39.6278 13.5329V27.3111C39.6278 27.8847 39.1597 28.3504 38.5831 28.3504H16.4363V28.8203C16.4363 29.612 17.081 30.2555 17.8788 30.2555H40.6341C41.3405 30.2555 41.9278 29.7073 42.0512 28.9855H41.9703V13.5329H39.6299H39.6278Z" fill="#11578A"/>
<path d="M40.5681 30.7847H17.832C16.7681 30.7847 15.9043 29.921 15.9043 28.8584C15.9043 28.6255 16.0958 28.435 16.3298 28.435C16.5639 28.435 16.7554 28.6255 16.7554 28.8584C16.7554 29.4532 17.2383 29.938 17.832 29.938H40.5681C41.1639 29.938 41.649 29.4553 41.649 28.8626V9.42204C41.649 8.82934 41.1639 8.34672 40.5681 8.34672H17.8362C17.2405 8.34672 16.7554 8.82934 16.7554 9.42204V21.4708C16.7554 21.7036 16.5639 21.8942 16.3298 21.8942C16.0958 21.8942 15.9043 21.7036 15.9043 21.4708V9.42204C15.9043 8.36153 16.7703 7.5 17.8362 7.5H40.5681C41.6341 7.5 42.5 8.36153 42.5 9.42204V28.8626C42.5 29.9231 41.6341 30.7847 40.5681 30.7847Z" fill="#3D5A80"/>
<path d="M38.6703 13.8504H16.3298C16.0958 13.8504 15.9043 13.6599 15.9043 13.427C15.9043 13.1942 16.0958 13.0037 16.3298 13.0037H38.6703C38.9043 13.0037 39.0958 13.1942 39.0958 13.427C39.0958 13.6599 38.9043 13.8504 38.6703 13.8504Z" fill="#3D5A80"/>
<path d="M19.7341 11.0985H19.3086C19.0745 11.0985 18.8831 10.908 18.8831 10.6752C18.8831 10.4423 19.0745 10.2518 19.3086 10.2518H19.7341C19.9682 10.2518 20.1597 10.4423 20.1597 10.6752C20.1597 10.908 19.9682 11.0985 19.7341 11.0985Z" fill="#3D5A80"/>
<path d="M22.0745 11.0985H21.6489C21.4149 11.0985 21.2234 10.908 21.2234 10.6752C21.2234 10.4423 21.4149 10.2518 21.6489 10.2518H22.0745C22.3085 10.2518 22.5 10.4423 22.5 10.6752C22.5 10.908 22.3085 11.0985 22.0745 11.0985Z" fill="#3D5A80"/>
<path d="M24.6277 11.0985H24.2021C23.9681 11.0985 23.7766 10.908 23.7766 10.6752C23.7766 10.4423 23.9681 10.2518 24.2021 10.2518H24.6277C24.8617 10.2518 25.0532 10.4423 25.0532 10.6752C25.0532 10.908 24.8617 11.0985 24.6277 11.0985Z" fill="#3D5A80"/>
<path d="M9.30856 23.7993C7.666 23.7993 6.32983 22.4699 6.32983 20.8358C6.32983 19.2016 7.666 17.8723 9.30856 17.8723C10.9511 17.8723 12.2873 19.2016 12.2873 20.8358C12.2873 22.4699 10.9511 23.7993 9.30856 23.7993ZM9.30856 18.719C8.13622 18.719 7.1809 19.6694 7.1809 20.8358C7.1809 22.0021 8.13622 22.9525 9.30856 22.9525C10.4809 22.9525 11.4362 22.0021 11.4362 20.8358C11.4362 19.6694 10.4809 18.719 9.30856 18.719Z" fill="#3D5A80"/>
<path d="M2.92553 36.5C2.69149 36.5 2.5 36.3095 2.5 36.0766V26.659C2.5 25.4927 3.25106 24.4724 4.37021 24.1231L5.95106 23.6278C6.30851 23.5156 6.70426 23.6193 6.95957 23.8903L8.30426 25.317C8.46596 25.4885 8.45532 25.7552 8.28511 25.9161C8.11277 26.0769 7.84468 26.0685 7.68298 25.897L6.3383 24.4703C6.30426 24.4343 6.25319 24.4216 6.20638 24.4364L4.62553 24.9317C3.86383 25.1709 3.35106 25.8652 3.35106 26.6612V36.0788C3.35106 36.3116 3.15957 36.5021 2.92553 36.5021V36.5Z" fill="#3D5A80"/>
<path d="M12.9256 36.5C12.6915 36.5 12.5001 36.3095 12.5001 36.0766V27.148L19.8107 26.1785C20.6979 26.06 21.3788 25.3107 21.4362 24.3899V24.3729C21.4086 24.3137 21.3554 24.2586 21.2873 24.2205H12.4575C12.2554 24.2628 12.1766 24.3179 12.1469 24.3602L9.54473 27.8614C9.40431 28.0498 9.13835 28.09 8.94899 27.9503C8.75963 27.8106 8.7192 27.546 8.85963 27.3576L11.4618 23.8564C11.6426 23.613 11.9277 23.4585 12.3362 23.3823L12.4149 23.3759H21.4575L21.5298 23.4034C21.9001 23.541 22.1766 23.8374 22.2724 24.1951L22.2873 24.248V24.4258C22.2128 25.7552 21.2192 26.8453 19.9235 27.0168L13.3511 27.8889V36.0766C13.3511 36.3095 13.1596 36.5 12.9256 36.5Z" fill="#3D5A80"/>
<path d="M5.47875 32.4781C5.24471 32.4781 5.05322 32.2876 5.05322 32.0547V28.2445C5.05322 28.0117 5.24471 27.8212 5.47875 27.8212C5.7128 27.8212 5.90429 28.0117 5.90429 28.2445V32.0547C5.90429 32.2876 5.7128 32.4781 5.47875 32.4781Z" fill="#3D5A80"/>
<path d="M37.8192 26.9745H23.3512C23.1171 26.9745 22.9256 26.784 22.9256 26.5511C22.9256 26.3183 23.1171 26.1278 23.3512 26.1278H36.9682V16.3905H21.0107V21.2592C21.0107 21.492 20.8192 21.6825 20.5852 21.6825C20.3512 21.6825 20.1597 21.492 20.1597 21.2592V15.5438H37.8192V26.9745Z" fill="#3D5A80"/>
<path d="M21.6872 24.4301C21.5277 24.4301 21.3766 24.3412 21.3021 24.1888C21.2 23.9771 21.2915 23.7252 21.5021 23.6236L28.7894 20.1605C29.0021 20.0589 29.2553 20.1499 29.3575 20.3595C29.4596 20.5712 29.3681 20.8231 29.1575 20.9247L21.8702 24.3877C21.8106 24.4152 21.7489 24.4301 21.6872 24.4301Z" fill="#3D5A80"/>
</g>
<defs>
<clipPath id="clip0_392_16197">
<rect width="40" height="29" fill="white" transform="translate(2.5 7.5)"/>
</clipPath>
</defs>
</svg>
