<svg width="45" height="44" viewBox="0 0 45 44" fill="none" xmlns="http://www.w3.org/2000/svg">
<rect x="0.5" width="33" height="33" rx="4" fill="#8BC523" fill-opacity="0.2"/>
<rect x="0.5" width="33" height="33" rx="4" fill="#8BC523" fill-opacity="0.2"/>
<g clip-path="url(#clip0_392_16293)">
<path d="M38.5175 29.5377H23.2468V17.2051C23.2468 12.8443 26.6636 9.31219 30.8821 9.31219C35.1006 9.31219 38.5175 12.8443 38.5175 17.2051V29.5377Z" fill="#8BC523" stroke="#3D5A80" stroke-width="0.5" stroke-linecap="round" stroke-linejoin="round"/>
<path d="M35.0005 26.5236L33.9268 26.0204C33.588 25.8626 33.3685 25.5074 33.3685 25.1226V22.7449H28.5964V25.1177C28.5964 25.4975 28.3864 25.8428 28.0524 26.0056L27.2364 26.4101L27.2268 31.1311H34.8621L34.9957 26.5236H35.0005Z" fill="white" stroke="#3D5A80" stroke-width="0.5" stroke-linecap="round" stroke-linejoin="round"/>
<path d="M36.0073 35.8767H25.5088V29.957L27.8805 30.6427C29.6891 31.1656 31.5932 31.1755 33.4066 30.6773L36.0073 29.962V35.8816V35.8767Z" fill="#11578A" stroke="#3D5A80" stroke-width="0.5" stroke-linecap="round" stroke-linejoin="round"/>
<path d="M38.6511 28.3094L34.7476 26.4003L32.0657 35.8767H41.376V32.7935C41.376 30.8647 40.35 29.1085 38.6511 28.3094Z" fill="white" stroke="#3D5A80" stroke-width="0.5" stroke-linecap="round" stroke-linejoin="round"/>
<path d="M27.241 26.4102L23.2516 28.2748C21.5432 29.074 20.3835 30.8746 20.3835 32.8133V35.8767H29.5411L27.2458 26.4102H27.241Z" fill="white" stroke="#3D5A80" stroke-width="0.5" stroke-linecap="round" stroke-linejoin="round"/>
<path d="M37.563 33.9034V35.8767" stroke="#3D5A80" stroke-width="0.5" stroke-linecap="round" stroke-linejoin="round"/>
<path d="M24.2012 33.8788V35.852" stroke="#3D5A80" stroke-width="0.5" stroke-linecap="round" stroke-linejoin="round"/>
<path d="M33.6738 15.4144C33.1728 15.0987 32.7528 14.7435 32.3997 14.3686C32.2375 14.1959 31.975 14.1861 31.7889 14.3242C31.2496 14.7238 30.2761 15.3552 29.2024 15.6758C27.6038 16.1543 25.7999 16.105 25.0269 16.0113V18.6801C25.0269 21.9507 27.6515 24.4715 30.8154 24.4715H30.7867C33.9506 24.4715 36.4846 21.9457 36.4846 18.6801V16.3813C36.0074 16.3813 34.6855 16.0458 33.6738 15.4094V15.4144Z" fill="white" stroke="#3D5A80" stroke-width="0.5" stroke-linecap="round" stroke-linejoin="round"/>
<path d="M27.9186 18.4137C28.1822 18.4137 28.3958 18.1928 28.3958 17.9204C28.3958 17.6479 28.1822 17.4271 27.9186 17.4271C27.6551 17.4271 27.4414 17.6479 27.4414 17.9204C27.4414 18.1928 27.6551 18.4137 27.9186 18.4137Z" fill="black"/>
<path d="M33.6452 18.4137C33.9087 18.4137 34.1224 18.1928 34.1224 17.9204C34.1224 17.6479 33.9087 17.4271 33.6452 17.4271C33.3816 17.4271 33.168 17.6479 33.168 17.9204C33.168 18.1928 33.3816 18.4137 33.6452 18.4137Z" fill="black"/>
<path d="M30.7818 22.6265C29.4647 22.6265 28.3958 21.5215 28.3958 20.16H33.1678C33.1678 21.5215 32.0989 22.6265 30.7818 22.6265Z" fill="white" stroke="#3D5A80" stroke-width="0.5" stroke-linecap="round" stroke-linejoin="round"/>
<path d="M26.6828 19.3361C26.9463 19.3361 27.16 19.2257 27.16 19.0895C27.16 18.9533 26.9463 18.8428 26.6828 18.8428C26.4192 18.8428 26.2056 18.9533 26.2056 19.0895C26.2056 19.2257 26.4192 19.3361 26.6828 19.3361Z" fill="#E57373"/>
<path d="M35.0768 19.3361C35.3404 19.3361 35.554 19.2257 35.554 19.0895C35.554 18.9533 35.3404 18.8428 35.0768 18.8428C34.8133 18.8428 34.5996 18.9533 34.5996 19.0895C34.5996 19.2257 34.8133 19.3361 35.0768 19.3361Z" fill="#E57373"/>
<path d="M24.6165 35.8668H3.61938V31.9303C3.61938 29.8535 4.87921 27.9986 6.76895 27.2932L14.1847 24.5258L21.486 27.2883C23.3662 27.9986 24.6165 29.8485 24.6165 31.9204V35.8718V35.8668Z" fill="white" stroke="#3D5A80" stroke-width="0.5" stroke-linecap="round" stroke-linejoin="round"/>
<path d="M16.504 22.5969H11.7319V26.5434H16.504V22.5969Z" fill="white" stroke="#3D5A80" stroke-width="0.5" stroke-linecap="round" stroke-linejoin="round"/>
<path d="M15.5495 27.2192L15.0819 28.4672H13.1539L12.6863 27.2192V26.272H15.5495V27.2192Z" fill="#11578A" stroke="#3D5A80" stroke-width="0.5" stroke-linecap="round" stroke-linejoin="round"/>
<path d="M16.504 35.8669H11.7319L13.1636 28.4673H15.0724L16.504 35.8669Z" fill="#11578A" stroke="#3D5A80" stroke-width="0.5" stroke-linecap="round" stroke-linejoin="round"/>
<path d="M12.2569 28.0973L10.7441 25.8084L11.7797 24.6442L14.0846 26.3017L12.2569 28.0973Z" fill="white" stroke="#3D5A80" stroke-width="0.5" stroke-linecap="round" stroke-linejoin="round"/>
<path d="M16.0173 28.0973L17.5348 25.8084L16.4945 24.6442L14.1943 26.3017L16.0173 28.0973Z" fill="white" stroke="#3D5A80" stroke-width="0.5" stroke-linecap="round" stroke-linejoin="round"/>
<path d="M14.1178 23.9929C10.954 23.9929 8.39136 21.3439 8.39136 18.0733V12.1536H19.8443V18.0733C19.8443 21.3439 17.2817 23.9929 14.1178 23.9929Z" fill="white" stroke="#3D5A80" stroke-width="0.5" stroke-linecap="round" stroke-linejoin="round"/>
<path d="M11.2548 17.802C11.5183 17.802 11.732 17.5811 11.732 17.3087C11.732 17.0362 11.5183 16.8154 11.2548 16.8154C10.9912 16.8154 10.7776 17.0362 10.7776 17.3087C10.7776 17.5811 10.9912 17.802 11.2548 17.802Z" fill="#3D5A80"/>
<path d="M16.9811 17.802C17.2447 17.802 17.4583 17.5811 17.4583 17.3087C17.4583 17.0362 17.2447 16.8154 16.9811 16.8154C16.7176 16.8154 16.5039 17.0362 16.5039 17.3087C16.5039 17.5811 16.7176 17.802 16.9811 17.802Z" fill="#3D5A80"/>
<path d="M14.118 22.0148C12.8009 22.0148 11.7319 20.9098 11.7319 19.5483H16.504C16.504 20.9098 15.4351 22.0148 14.118 22.0148Z" fill="white" stroke="#3D5A80" stroke-width="0.5" stroke-linecap="round" stroke-linejoin="round"/>
<path d="M8.39631 18.0733V16.6033C8.39631 16.6033 8.40585 16.5934 8.38199 16.5934C7.58983 16.5934 6.979 17.2544 6.979 18.0733C6.979 18.8922 7.63755 19.5532 8.42494 19.5532C8.51084 19.5532 8.48698 19.5631 8.57288 19.5483C8.45835 19.0846 8.39631 18.5765 8.39631 18.0733Z" fill="white" stroke="#3D5A80" stroke-width="0.5" stroke-linecap="round" stroke-linejoin="round"/>
<path d="M18.8947 9.94858C18.093 8.87318 16.2605 8.12335 14.0892 8.12335C11.6936 8.12335 9.63208 9.03597 9.00217 10.284C8.02867 10.9549 7.31763 12.0254 7.31763 13.308V17.0028L8.39134 16.5095C8.39134 16.5095 9.24554 15.3651 9.22646 13.5349V12.351C10.1809 13.382 11.875 14.1022 13.9985 14.1022C16.1221 14.1022 18.2934 13.382 18.7706 12.351V13.5349C18.7945 15.7893 19.8443 16.5095 19.8443 16.5095L20.6794 17.0028V13.308C20.6794 11.7787 20.0304 10.5553 18.8947 9.94365V9.94858Z" fill="#8BC523" stroke="#3D5A80" stroke-width="0.5" stroke-linecap="round" stroke-linejoin="round"/>
<path d="M19.8444 16.5934V18.0733C19.8444 18.5765 19.7776 19.0796 19.6631 19.5483C19.7251 19.5581 19.8731 19.5532 19.9351 19.5532C20.7273 19.5532 21.319 18.8922 21.319 18.0733C21.319 17.2544 20.7941 16.5934 19.8397 16.5934H19.8444Z" fill="white" stroke="#3D5A80" stroke-width="0.5" stroke-linecap="round" stroke-linejoin="round"/>
<path d="M7.43701 33.8739V35.8471" stroke="#3D5A80" stroke-width="0.5" stroke-linecap="round" stroke-linejoin="round"/>
<path d="M20.7988 33.8936V35.8668" stroke="#3D5A80" stroke-width="0.5" stroke-linecap="round" stroke-linejoin="round"/>
</g>
<defs>
<clipPath id="clip0_392_16293">
<rect width="38" height="28" fill="white" transform="translate(3.5 8)"/>
</clipPath>
</defs>
</svg>
