<svg width="16" height="15" viewBox="0 0 16 15" fill="none" xmlns="http://www.w3.org/2000/svg">
<mask id="mask0_818_9597" style="mask-type:alpha" maskUnits="userSpaceOnUse" x="0" y="0" width="16" height="15">
<rect x="0.5" width="15" height="15" fill="#D9D9D9"/>
</mask>
<g mask="url(#mask0_818_9597)">
<path d="M10.5 13.75V12.3438C9.91667 12.1562 9.42708 11.8229 9.03125 11.3438C8.63542 10.8646 8.40625 10.3125 8.34375 9.6875H9.59375C9.67708 10.1354 9.88802 10.5078 10.2266 10.8047C10.5651 11.1016 10.9688 11.25 11.4375 11.25H13.3125C13.5729 11.25 13.7943 11.3411 13.9766 11.5234C14.1589 11.7057 14.25 11.9271 14.25 12.1875V13.75H10.5ZM12.375 10.625C12.0312 10.625 11.737 10.5026 11.4922 10.2578C11.2474 10.013 11.125 9.71875 11.125 9.375C11.125 9.03125 11.2474 8.73698 11.4922 8.49219C11.737 8.2474 12.0312 8.125 12.375 8.125C12.7188 8.125 13.013 8.2474 13.2578 8.49219C13.5026 8.73698 13.625 9.03125 13.625 9.375C13.625 9.71875 13.5026 10.013 13.2578 10.2578C13.013 10.5026 12.7188 10.625 12.375 10.625ZM6.125 8.75C6.125 7.1875 6.67188 5.85938 7.76562 4.76562C8.85938 3.67188 10.1875 3.125 11.75 3.125V4.375C10.5312 4.375 9.4974 4.79948 8.64844 5.64844C7.79948 6.4974 7.375 7.53125 7.375 8.75H6.125ZM8.625 8.75C8.625 7.88542 8.92969 7.14844 9.53906 6.53906C10.1484 5.92969 10.8854 5.625 11.75 5.625V6.875C11.2292 6.875 10.7865 7.05729 10.4219 7.42188C10.0573 7.78646 9.875 8.22917 9.875 8.75H8.625ZM1.75 6.875V5.3125C1.75 5.05208 1.84115 4.83073 2.02344 4.64844C2.20573 4.46615 2.42708 4.375 2.6875 4.375H4.5625C5.03125 4.375 5.4349 4.22656 5.77344 3.92969C6.11198 3.63281 6.32292 3.26042 6.40625 2.8125H7.65625C7.59375 3.4375 7.36458 3.98958 6.96875 4.46875C6.57292 4.94792 6.08333 5.28125 5.5 5.46875V6.875H1.75ZM3.625 3.75C3.28125 3.75 2.98698 3.6276 2.74219 3.38281C2.4974 3.13802 2.375 2.84375 2.375 2.5C2.375 2.15625 2.4974 1.86198 2.74219 1.61719C2.98698 1.3724 3.28125 1.25 3.625 1.25C3.96875 1.25 4.26302 1.3724 4.50781 1.61719C4.7526 1.86198 4.875 2.15625 4.875 2.5C4.875 2.84375 4.7526 3.13802 4.50781 3.38281C4.26302 3.6276 3.96875 3.75 3.625 3.75Z" fill="#11578A"/>
</g>
</svg>
