<svg width="21" height="20" viewBox="0 0 21 20" fill="none" xmlns="http://www.w3.org/2000/svg">
<mask id="mask0_311_4216" style="mask-type:alpha" maskUnits="userSpaceOnUse" x="0" y="0" width="21" height="20">
<rect x="0.833374" width="20" height="20" fill="#D9D9D9"/>
</mask>
<g mask="url(#mask0_311_4216)">
<path d="M10.8334 16.6666C10.1667 16.1388 9.44453 15.7291 8.66675 15.4375C7.88897 15.1458 7.08341 15 6.25008 15C5.66675 15 5.09383 15.0763 4.53133 15.2291C3.96883 15.3819 3.43064 15.5972 2.91675 15.875C2.62508 16.0277 2.34383 16.0208 2.073 15.8541C1.80216 15.6875 1.66675 15.4444 1.66675 15.125V5.08329C1.66675 4.93051 1.70494 4.78468 1.78133 4.64579C1.85772 4.5069 1.9723 4.40274 2.12508 4.33329C2.76397 3.99996 3.43064 3.74996 4.12508 3.58329C4.81953 3.41663 5.52786 3.33329 6.25008 3.33329C7.05564 3.33329 7.84383 3.43746 8.61467 3.64579C9.3855 3.85413 10.1251 4.16663 10.8334 4.58329V14.6666C11.5417 14.2222 12.2848 13.8888 13.0626 13.6666C13.8404 13.4444 14.6251 13.3333 15.4167 13.3333C15.9167 13.3333 16.4063 13.375 16.8855 13.4583C17.3647 13.5416 17.8473 13.6666 18.3334 13.8333V3.83329C18.5417 3.90274 18.7466 3.97565 18.948 4.05204C19.1494 4.12843 19.3473 4.22218 19.5417 4.33329C19.6945 4.40274 19.8091 4.5069 19.8855 4.64579C19.9619 4.78468 20.0001 4.93051 20.0001 5.08329V15.125C20.0001 15.4444 19.8647 15.6875 19.5938 15.8541C19.323 16.0208 19.0417 16.0277 18.7501 15.875C18.2362 15.5972 17.698 15.3819 17.1355 15.2291C16.573 15.0763 16.0001 15 15.4167 15C14.5834 15 13.7779 15.1458 13.0001 15.4375C12.2223 15.7291 11.5001 16.1388 10.8334 16.6666ZM12.5001 12.5V4.58329L16.6667 0.416626V8.74996L12.5001 12.5ZM9.16675 13.8541V5.60413C8.70842 5.40968 8.23272 5.26038 7.73966 5.15621C7.24661 5.05204 6.75008 4.99996 6.25008 4.99996C5.73619 4.99996 5.23619 5.04857 4.75008 5.14579C4.26397 5.24301 3.79175 5.38885 3.33341 5.58329V13.8541C3.81953 13.6736 4.30216 13.5416 4.78133 13.4583C5.2605 13.375 5.75008 13.3333 6.25008 13.3333C6.75008 13.3333 7.23967 13.375 7.71883 13.4583C8.198 13.5416 8.68064 13.6736 9.16675 13.8541Z" fill="#9A9A9A"/>
</g>
</svg>
