<svg width="21" height="20" viewBox="0 0 21 20" fill="none" xmlns="http://www.w3.org/2000/svg">
<mask id="mask0_392_16434" style="mask-type:alpha" maskUnits="userSpaceOnUse" x="0" y="0" width="21" height="20">
<rect x="0.833252" width="20" height="20" fill="#D9D9D9"/>
</mask>
<g mask="url(#mask0_392_16434)">
<path d="M10.8332 16.6667C10.1665 16.1389 9.44428 15.7292 8.6665 15.4375C7.88873 15.1458 7.08317 15 6.24984 15C5.6665 15 5.09359 15.0764 4.53109 15.2292C3.96859 15.3819 3.43039 15.5972 2.9165 15.875C2.62484 16.0278 2.34359 16.0208 2.07275 15.8542C1.80192 15.6875 1.6665 15.4444 1.6665 15.125V5.08333C1.6665 4.93056 1.7047 4.78472 1.78109 4.64583C1.85748 4.50695 1.97206 4.40278 2.12484 4.33333C2.76373 4 3.43039 3.75 4.12484 3.58333C4.81928 3.41667 5.52762 3.33333 6.24984 3.33333C7.05539 3.33333 7.84359 3.4375 8.61442 3.64583C9.38525 3.85417 10.1248 4.16667 10.8332 4.58333V14.6667C11.5415 14.2222 12.2846 13.8889 13.0623 13.6667C13.8401 13.4444 14.6248 13.3333 15.4165 13.3333C15.9165 13.3333 16.4061 13.375 16.8853 13.4583C17.3644 13.5417 17.8471 13.6667 18.3332 13.8333V3.83333C18.5415 3.90278 18.7464 3.97569 18.9478 4.05208C19.1491 4.12847 19.3471 4.22222 19.5415 4.33333C19.6943 4.40278 19.8089 4.50695 19.8853 4.64583C19.9616 4.78472 19.9998 4.93056 19.9998 5.08333V15.125C19.9998 15.4444 19.8644 15.6875 19.5936 15.8542C19.3228 16.0208 19.0415 16.0278 18.7498 15.875C18.2359 15.5972 17.6978 15.3819 17.1353 15.2292C16.5728 15.0764 15.9998 15 15.4165 15C14.5832 15 13.7776 15.1458 12.9998 15.4375C12.2221 15.7292 11.4998 16.1389 10.8332 16.6667ZM12.4998 12.5V4.58333L16.6665 0.416667V8.75L12.4998 12.5ZM9.1665 13.8542V5.60417C8.70817 5.40972 8.23248 5.26042 7.73942 5.15625C7.24637 5.05208 6.74984 5 6.24984 5C5.73595 5 5.23595 5.04861 4.74984 5.14583C4.26373 5.24306 3.7915 5.38889 3.33317 5.58333V13.8542C3.81928 13.6736 4.30192 13.5417 4.78109 13.4583C5.26025 13.375 5.74984 13.3333 6.24984 13.3333C6.74984 13.3333 7.23942 13.375 7.71859 13.4583C8.19775 13.5417 8.68039 13.6736 9.1665 13.8542Z" fill="#8BC523"/>
</g>
</svg>
