<svg width="205" height="224" viewBox="0 0 205 224" fill="none" xmlns="http://www.w3.org/2000/svg">
<g clip-path="url(#clip0_318_4762)">
<path d="M142.35 45.4447C128.14 43.1877 111.957 41.9833 95.1033 41.9833C79.6795 41.9833 64.8196 42.9905 51.5204 44.8895C51.5235 44.6863 51.5265 44.483 51.5356 44.2798C51.8881 32.482 56.8637 21.2894 65.3987 13.0942C73.9338 4.89913 85.3512 0.351651 97.2107 0.423757C109.07 0.495863 120.431 5.18184 128.865 13.4801C137.299 21.7784 142.136 33.0307 142.344 44.8319C142.347 45.0382 142.35 45.2414 142.35 45.4447Z" fill="#8BC523"/>
<g opacity="0.1">
<path d="M102.892 0.406906C96.5839 -0.441006 90.1676 0.0395662 84.0586 1.81747C77.9495 3.59538 72.284 6.63095 67.4291 10.7274C62.5743 14.8239 58.6386 19.8899 55.8769 25.5971C53.1153 31.3043 51.5894 37.5253 51.3982 43.8569C51.389 44.0602 51.386 44.2634 51.3831 44.4667C55.3341 43.9025 59.4256 43.419 63.6261 43.0153C64.1398 32.4671 68.348 22.4307 75.5203 14.6478C82.6927 6.86481 92.3765 1.82643 102.892 0.406906Z" fill="white"/>
</g>
<path d="M162.218 49.0304C155.677 47.2656 149.042 45.8639 142.344 44.8319C131.366 43.1389 120.299 42.0804 109.198 41.6618C104.574 41.4737 99.8646 41.3766 95.1033 41.3766C91.3297 41.3766 87.5865 41.4373 83.8952 41.5587C73.0668 41.8771 62.2641 42.7855 51.5356 44.2798C43.5938 45.3682 35.7291 46.9549 27.9884 49.0304C9.94008 53.9965 0 60.6522 0 67.7691C0 74.8859 9.94009 81.5417 27.9884 86.5077C40.6811 90.0024 56.3304 92.3838 73.3821 93.4759C80.4203 93.9309 87.6963 94.1615 95.1033 94.1615C102.535 94.1615 109.835 93.9279 116.895 93.4728C132.413 92.4748 146.77 90.4089 158.786 87.4056C158.85 87.3874 158.911 87.3723 158.975 87.3571C159.786 87.1569 160.584 86.9475 161.374 86.7382C161.657 86.6594 161.938 86.5835 162.218 86.5077C162.234 86.5012 162.25 86.4962 162.267 86.4925C162.535 86.4197 162.8 86.3439 163.066 86.2711C163.596 86.1194 164.12 85.9707 164.635 85.816C164.66 85.8099 164.681 85.8039 164.703 85.7978C165.151 85.6643 165.59 85.5309 166.025 85.3974C166.382 85.2851 166.736 85.1759 167.086 85.0637C167.342 84.9818 167.595 84.8999 167.845 84.818C168.028 84.7573 168.208 84.6996 168.385 84.639C168.626 84.5601 168.866 84.4782 169.104 84.3963C169.205 84.3629 169.305 84.3295 169.403 84.2931C169.631 84.2173 169.854 84.1384 170.076 84.0596C170.317 83.9746 170.558 83.8866 170.796 83.8017C170.994 83.7319 171.192 83.6591 171.387 83.5863C171.552 83.5226 171.713 83.4619 171.878 83.4013C172.326 83.2344 172.765 83.0615 173.198 82.8916C173.414 82.8036 173.631 82.7187 173.844 82.6307C174.054 82.5458 174.268 82.4578 174.475 82.3698C174.816 82.2272 175.152 82.0847 175.481 81.9421C175.639 81.8693 175.801 81.7995 175.956 81.7328C176.075 81.6782 176.191 81.6266 176.31 81.572C176.395 81.5356 176.481 81.4962 176.563 81.4567C176.871 81.3172 177.176 81.1746 177.474 81.032C178.621 80.486 179.691 79.9278 180.684 79.3575C186.918 75.8051 190.207 71.8645 190.207 67.7691C190.207 60.6522 180.267 53.9965 162.218 49.0304ZM162.054 85.9252C149.346 89.423 133.654 91.8044 116.556 92.8874C109.604 93.3272 102.416 93.5548 95.1034 93.5548C87.8151 93.5548 80.6519 93.3303 73.7204 92.8904C56.5956 91.8104 40.8792 89.429 28.153 85.9252C10.3912 81.035 0.609637 74.5886 0.609637 67.7691C0.610629 67.1665 0.686415 66.5663 0.835274 65.9823C2.38973 59.8301 11.9519 54.0723 28.153 49.6129C35.8352 47.5535 43.6397 45.9759 51.5204 44.8896C62.3135 43.3868 73.1814 42.4753 84.075 42.1593C87.7085 42.041 91.3847 41.9824 95.1034 41.9834C99.8007 41.9834 104.446 42.0774 109.012 42.2594C120.178 42.6743 131.309 43.7379 142.35 45.4447C148.99 46.4721 155.568 47.8636 162.054 49.6129C178.252 54.0723 187.811 59.8271 189.368 65.9762C189.52 66.5619 189.597 67.1643 189.597 67.7691C189.597 74.5886 179.816 81.035 162.054 85.9252Z" fill="#3F3D56"/>
<path d="M190.033 68.0451C190.033 72.098 186.677 75.9325 180.684 79.3574C179.687 79.9278 178.615 80.4859 177.474 81.032C177.176 81.1746 176.871 81.3171 176.563 81.4567C176.481 81.4961 176.395 81.5356 176.31 81.572C176.191 81.6266 176.075 81.6782 175.956 81.7328C175.801 81.7995 175.639 81.8693 175.481 81.9421C175.152 82.0846 174.816 82.2272 174.475 82.3698C174.268 82.4578 174.054 82.5458 173.844 82.6307C173.631 82.7187 173.414 82.8036 173.198 82.8916C172.765 83.0615 172.326 83.2344 171.878 83.4012C171.713 83.4619 171.552 83.5226 171.387 83.5863C171.192 83.6591 170.994 83.7319 170.796 83.8017C170.558 83.8866 170.317 83.9746 170.076 84.0595C169.854 84.1384 169.631 84.2173 169.403 84.2931C169.305 84.3295 169.205 84.3629 169.104 84.3962C168.866 84.4782 168.626 84.5601 168.385 84.6389C168.208 84.6996 168.028 84.7572 167.845 84.8179C167.595 84.8998 167.342 84.9817 167.086 85.0636C166.736 85.1759 166.382 85.2851 166.025 85.3973C165.59 85.5308 165.151 85.6643 164.703 85.7978C164.681 85.8039 164.66 85.8099 164.635 85.816C164.12 85.9707 163.596 86.1193 163.066 86.271C162.8 86.3438 162.535 86.4197 162.267 86.4925C162.25 86.4961 162.234 86.5012 162.218 86.5076C161.938 86.5835 161.657 86.6593 161.374 86.7382C160.587 86.9445 159.786 87.1538 158.975 87.3571C158.911 87.3722 158.85 87.3874 158.786 87.4056C147.096 90.3118 132.755 92.4293 116.883 93.4516C109.93 93.8975 102.681 94.1341 95.2345 94.1341C87.7207 94.1341 80.411 93.8945 73.4033 93.4394C31.57 90.7244 0.435913 80.3858 0.435913 68.0451C0.439207 67.2942 0.554215 66.5479 0.777197 65.8306C0.795504 65.8821 0.813808 65.9307 0.835243 65.9822C5.18486 77.3522 36.054 86.541 76.1071 88.7829C82.2431 89.1287 88.5986 89.3077 95.1033 89.3077C101.636 89.3077 108.015 89.1257 114.176 88.7798C154.195 86.5289 185.034 77.337 189.368 65.9762C189.442 65.7941 189.506 65.6121 189.56 65.4301C189.869 66.2678 190.029 67.1527 190.033 68.0451Z" fill="#3F3D56"/>
<path d="M27.9425 64.7797C22.8695 64.7797 17.4778 63.6935 17.4778 61.6803C17.4778 59.6671 22.8695 58.5809 27.9425 58.5809C33.0155 58.5809 38.4071 59.6671 38.4071 61.6803C38.4071 63.6935 33.0155 64.7797 27.9425 64.7797ZM27.9425 59.1877C22.1348 59.1877 18.0875 60.5014 18.0875 61.6803C18.0875 62.8592 22.1348 64.173 27.9425 64.173C33.7502 64.173 37.7975 62.8592 37.7975 61.6803C37.7975 60.5014 33.7502 59.1877 27.9425 59.1877Z" fill="#3F3D56"/>
<path d="M49.5846 79.0377C44.5116 79.0377 39.12 77.9515 39.12 75.9383C39.12 73.9251 44.5116 72.8389 49.5846 72.8389C54.6576 72.8389 60.0492 73.9251 60.0492 75.9383C60.0492 77.9515 54.6576 79.0377 49.5846 79.0377ZM49.5846 73.4457C43.7769 73.4457 39.7296 74.7594 39.7296 75.9383C39.7296 77.1172 43.7769 78.431 49.5846 78.431C55.3922 78.431 59.4396 77.1172 59.4396 75.9383C59.4396 74.7594 55.3923 73.4457 49.5846 73.4457Z" fill="#3F3D56"/>
<path d="M162.063 64.7797C156.99 64.7797 151.598 63.6935 151.598 61.6803C151.598 59.6671 156.99 58.5809 162.063 58.5809C167.136 58.5809 172.527 59.6671 172.527 61.6803C172.527 63.6935 167.136 64.7797 162.063 64.7797ZM162.063 59.1877C156.255 59.1877 152.208 60.5014 152.208 61.6803C152.208 62.8592 156.255 64.173 162.063 64.173C167.87 64.173 171.918 62.8592 171.918 61.6803C171.918 60.5014 167.87 59.1877 162.063 59.1877Z" fill="#3F3D56"/>
<path d="M140.42 79.0377C135.347 79.0377 129.956 77.9515 129.956 75.9383C129.956 73.9251 135.348 72.8389 140.42 72.8389C145.494 72.8389 150.885 73.9251 150.885 75.9383C150.885 77.9515 145.494 79.0377 140.42 79.0377ZM140.42 73.4457C134.613 73.4457 130.566 74.7594 130.566 75.9383C130.566 77.1172 134.613 78.431 140.42 78.431C146.228 78.431 150.275 77.1172 150.275 75.9383C150.275 74.7594 146.228 73.4457 140.42 73.4457Z" fill="#3F3D56"/>
<path d="M95.0025 85.7116C89.9295 85.7116 84.5379 84.6254 84.5379 82.6123C84.5379 80.5991 89.9295 79.5129 95.0025 79.5129C100.076 79.5129 105.467 80.5991 105.467 82.6123C105.467 84.6254 100.076 85.7116 95.0025 85.7116ZM95.0025 80.1196C89.1948 80.1196 85.1475 81.4333 85.1475 82.6123C85.1475 83.7912 89.1948 85.1049 95.0025 85.1049C100.81 85.1049 104.858 83.7912 104.858 82.6123C104.858 81.4333 100.81 80.1196 95.0025 80.1196Z" fill="#3F3D56"/>
<path d="M102.717 149.471C109.79 149.471 115.523 143.765 115.523 136.726C115.523 129.687 109.79 123.981 102.717 123.981C95.6445 123.981 89.9109 129.687 89.9109 136.726C89.9109 143.765 95.6445 149.471 102.717 149.471Z" fill="#11578A"/>
<path d="M97.8474 145.1L91.6147 148.206L93.3568 151.668L99.5894 148.562L97.8474 145.1Z" fill="#11578A"/>
<path d="M94.1785 151.317C94.5481 150.759 93.6359 149.511 92.141 148.53C90.6462 147.549 89.1347 147.206 88.7651 147.764C88.3955 148.322 89.3077 149.57 90.8026 150.551C92.2974 151.532 93.8088 151.874 94.1785 151.317Z" fill="#11578A"/>
<path d="M107.587 145.1L105.845 148.562L112.077 151.668L113.819 148.206L107.587 145.1Z" fill="#11578A"/>
<path d="M114.632 150.551C116.126 149.57 117.039 148.322 116.669 147.764C116.299 147.206 114.788 147.549 113.293 148.53C111.798 149.511 110.886 150.759 111.256 151.317C111.625 151.874 113.137 151.532 114.632 150.551Z" fill="#11578A"/>
<path d="M101.821 137.965C104.238 137.965 106.197 136.014 106.197 133.609C106.197 131.203 104.238 129.253 101.821 129.253C99.4033 129.253 97.4437 131.203 97.4437 133.609C97.4437 136.014 99.4033 137.965 101.821 137.965Z" fill="white"/>
<path d="M102.885 132.774C103.453 132.209 103.449 131.29 102.878 130.722C102.307 130.153 101.383 130.15 100.816 130.714C100.249 131.279 100.252 132.198 100.823 132.766C101.395 133.335 102.318 133.338 102.885 132.774Z" fill="#3F3D56"/>
<path d="M112.819 122.861C113.012 118.143 108.926 114.146 103.693 113.935C98.4598 113.723 94.0615 117.377 93.8689 122.095C93.6763 126.813 97.3139 127.885 102.547 128.097C107.78 128.308 112.627 127.579 112.819 122.861Z" fill="#8BC523"/>
<path d="M120.201 143.4C121.043 142.68 119.859 139.932 117.556 137.262C115.252 134.591 112.702 133.01 111.86 133.73C111.017 134.449 112.202 137.197 114.505 139.868C116.809 142.538 119.359 144.119 120.201 143.4Z" fill="#11578A"/>
<path d="M90.9648 139.868C93.2683 137.197 94.4528 134.449 93.6104 133.729C92.7681 133.01 90.2179 134.591 87.9144 137.262C85.611 139.932 84.4265 142.68 85.2688 143.4C86.1112 144.119 88.6614 142.538 90.9648 139.868Z" fill="#11578A"/>
<path d="M106.234 141.749C106.373 142.506 106.203 143.288 105.763 143.921C105.323 144.555 104.648 144.988 103.886 145.126C103.125 145.264 102.34 145.095 101.703 144.657C101.067 144.218 100.632 143.547 100.493 142.789L100.492 142.783C100.205 141.205 101.431 140.647 103.017 140.361C104.602 140.075 105.947 140.171 106.234 141.749Z" fill="white"/>
<path d="M81.0817 150.283C80.92 150.283 80.7649 150.219 80.6506 150.106C80.5363 149.992 80.4721 149.837 80.472 149.677V113.88C80.472 113.719 80.5363 113.565 80.6506 113.451C80.7649 113.337 80.92 113.273 81.0817 113.273C81.2434 113.273 81.3984 113.337 81.5128 113.451C81.6271 113.565 81.6913 113.719 81.6913 113.88V149.677C81.6913 149.837 81.6271 149.992 81.5128 150.106C81.3984 150.219 81.2434 150.283 81.0817 150.283Z" fill="#CCCCCC"/>
<path d="M71.9372 182.44C71.7755 182.44 71.6204 182.376 71.5061 182.262C71.3918 182.148 71.3275 181.994 71.3275 181.833V155.744C71.3275 155.583 71.3917 155.429 71.5061 155.315C71.6204 155.201 71.7755 155.137 71.9372 155.137C72.0988 155.137 72.2539 155.201 72.3682 155.315C72.4826 155.429 72.5468 155.583 72.5468 155.744V181.833C72.5468 181.994 72.4825 182.148 72.3682 182.262C72.2539 182.376 72.0988 182.44 71.9372 182.44Z" fill="#CCCCCC"/>
<path d="M95.4082 160.901C95.2465 160.901 95.0914 160.837 94.9771 160.723C94.8628 160.609 94.7985 160.455 94.7985 160.294V124.498C94.7985 124.337 94.8627 124.182 94.9771 124.069C95.0914 123.955 95.2465 123.891 95.4082 123.891C95.5698 123.891 95.7249 123.955 95.8392 124.069C95.9536 124.182 96.0178 124.337 96.0178 124.498V160.294C96.0178 160.455 95.9536 160.609 95.8392 160.723C95.7249 160.837 95.5698 160.901 95.4082 160.901Z" fill="#CCCCCC"/>
<path d="M86.5684 186.687C86.4068 186.687 86.2517 186.623 86.1374 186.509C86.023 186.395 85.9588 186.241 85.9588 186.08V171.519C85.9588 171.358 86.023 171.203 86.1374 171.09C86.2517 170.976 86.4068 170.912 86.5684 170.912C86.7301 170.912 86.8852 170.976 86.9995 171.09C87.1138 171.203 87.1781 171.358 87.1781 171.519V186.08C87.1781 186.241 87.1138 186.395 86.9995 186.509C86.8852 186.623 86.7301 186.687 86.5684 186.687Z" fill="#CCCCCC"/>
<path d="M99.066 112.06C98.9043 112.06 98.7493 111.996 98.6349 111.882C98.5206 111.768 98.4564 111.614 98.4564 111.453V96.8917C98.4564 96.7308 98.5206 96.5765 98.6349 96.4627C98.7492 96.3489 98.9043 96.285 99.066 96.285C99.2277 96.285 99.3827 96.3489 99.4971 96.4627C99.6114 96.5765 99.6756 96.7308 99.6756 96.8917V111.453C99.6756 111.614 99.6114 111.768 99.4971 111.882C99.3827 111.996 99.2277 112.06 99.066 112.06Z" fill="#CCCCCC"/>
<path d="M68.5841 118.43C68.4224 118.43 68.2674 118.366 68.1531 118.253C68.0387 118.139 67.9745 117.985 67.9745 117.824V103.262C67.9745 103.101 68.0387 102.947 68.153 102.833C68.2674 102.72 68.4224 102.656 68.5841 102.656C68.7458 102.656 68.9009 102.72 69.0152 102.833C69.1295 102.947 69.1938 103.101 69.1938 103.262V117.824C69.1938 117.985 69.1295 118.139 69.0152 118.253C68.9009 118.366 68.7458 118.43 68.5841 118.43Z" fill="#CCCCCC"/>
<path d="M121.623 119.947C121.461 119.947 121.306 119.883 121.192 119.769C121.077 119.656 121.013 119.501 121.013 119.34V104.779C121.013 104.618 121.077 104.464 121.191 104.35C121.306 104.236 121.461 104.172 121.623 104.172C121.784 104.172 121.939 104.236 122.054 104.35C122.168 104.464 122.232 104.618 122.232 104.779V119.34C122.232 119.501 122.168 119.656 122.054 119.769C121.939 119.883 121.784 119.947 121.623 119.947Z" fill="#CCCCCC"/>
<path d="M120.403 165.451C120.242 165.451 120.087 165.387 119.972 165.274C119.858 165.16 119.794 165.006 119.794 164.845V147.25C119.794 147.089 119.858 146.934 119.972 146.821C120.087 146.707 120.242 146.643 120.403 146.643C120.565 146.643 120.72 146.707 120.834 146.821C120.949 146.934 121.013 147.089 121.013 147.25V164.845C121.013 165.006 120.949 165.16 120.834 165.274C120.72 165.387 120.565 165.451 120.403 165.451Z" fill="#CCCCCC"/>
<path d="M108.211 180.923C108.049 180.923 107.894 180.859 107.779 180.745C107.665 180.631 107.601 180.477 107.601 180.316V154.227C107.601 154.066 107.665 153.912 107.779 153.798C107.894 153.684 108.049 153.62 108.211 153.62C108.372 153.62 108.527 153.684 108.642 153.798C108.756 153.912 108.82 154.066 108.82 154.227V180.316C108.82 180.477 108.756 180.631 108.642 180.745C108.527 180.859 108.372 180.923 108.211 180.923Z" fill="#CCCCCC"/>
<path d="M110.649 136.329C110.487 136.329 110.332 136.265 110.218 136.151C110.104 136.037 110.039 135.883 110.039 135.722V99.9253C110.039 99.7644 110.104 99.6101 110.218 99.4963C110.332 99.3825 110.487 99.3186 110.649 99.3186C110.811 99.3186 110.966 99.3825 111.08 99.4963C111.194 99.6101 111.259 99.7644 111.259 99.9253V135.722C111.259 135.883 111.194 136.037 111.08 136.151C110.966 136.265 110.811 136.329 110.649 136.329Z" fill="#CCCCCC"/>
<path d="M185.388 212.502C186.261 211.775 185.082 208.943 182.755 206.176C180.427 203.41 177.834 201.757 176.961 202.484C176.088 203.211 177.268 206.043 179.595 208.809C181.922 211.576 184.516 213.229 185.388 212.502Z" fill="#11578A"/>
<path d="M179.666 209.356C181.959 202.511 178.241 195.112 171.363 192.83C164.485 190.548 157.051 194.248 154.758 201.093C152.465 207.938 156.182 215.337 163.061 217.619C169.939 219.901 177.373 216.201 179.666 209.356Z" fill="#11578A"/>
<path d="M172.768 215.478H168.78V222.589H172.768V215.478Z" fill="#11578A"/>
<path d="M164.792 215.478H160.804V222.589H164.792V215.478Z" fill="#11578A"/>
<path d="M169.445 223.912C171.28 223.912 172.768 223.357 172.768 222.672C172.768 221.987 171.28 221.432 169.445 221.432C167.609 221.432 166.121 221.987 166.121 222.672C166.121 223.357 167.609 223.912 169.445 223.912Z" fill="#11578A"/>
<path d="M161.469 223.747C163.304 223.747 164.792 223.192 164.792 222.507C164.792 221.822 163.304 221.266 161.469 221.266C159.633 221.266 158.145 221.822 158.145 222.507C158.145 223.192 159.633 223.747 161.469 223.747Z" fill="#11578A"/>
<path d="M163.09 188.801C164.262 184.103 169.436 181.339 174.647 182.626C179.858 183.914 183.131 188.766 181.959 193.465C180.787 198.163 176.898 198.178 171.687 196.89C166.477 195.602 161.918 193.5 163.09 188.801Z" fill="#CCCCCC"/>
<path d="M158.356 201.962C158.844 200.938 156.584 198.855 153.309 197.309C150.033 195.763 146.983 195.34 146.495 196.363C146.007 197.386 148.267 199.469 151.543 201.015C154.818 202.561 157.869 202.985 158.356 201.962Z" fill="#11578A"/>
<path d="M165.249 206.824C167.667 206.824 169.626 204.873 169.626 202.468C169.626 200.062 167.667 198.112 165.249 198.112C162.832 198.112 160.872 200.062 160.872 202.468C160.872 204.873 162.832 206.824 165.249 206.824Z" fill="white"/>
<path d="M163.45 202.358C164.256 202.358 164.909 201.708 164.909 200.906C164.909 200.105 164.256 199.454 163.45 199.454C162.645 199.454 161.992 200.105 161.992 200.906C161.992 201.708 162.645 202.358 163.45 202.358Z" fill="#3F3D56"/>
<path d="M165.212 213.382C166.222 213.382 167.041 212.567 167.041 211.562C167.041 210.557 166.222 209.742 165.212 209.742C164.202 209.742 163.383 210.557 163.383 211.562C163.383 212.567 164.202 213.382 165.212 213.382Z" fill="white"/>
<path d="M204.695 224H132.758C132.677 224 132.6 223.968 132.543 223.911C132.485 223.854 132.453 223.777 132.453 223.697C132.453 223.616 132.485 223.539 132.543 223.482C132.6 223.425 132.677 223.393 132.758 223.393H204.695C204.776 223.393 204.854 223.425 204.911 223.482C204.968 223.539 205 223.616 205 223.697C205 223.777 204.968 223.854 204.911 223.911C204.854 223.968 204.776 224 204.695 224Z" fill="#3F3D56"/>
</g>
<defs>
<clipPath id="clip0_318_4762">
<rect width="205" height="224" fill="white"/>
</clipPath>
</defs>
</svg>
