<svg width="12" height="12" viewBox="0 0 12 12" fill="none" xmlns="http://www.w3.org/2000/svg">
<path d="M9.5 4.5C9.5 5.225 9.285 5.89001 8.915 6.44501C8.375 7.24501 7.52 7.81 6.525 7.955C6.355 7.985 6.18 8 6 8C5.82 8 5.645 7.985 5.475 7.955C4.48 7.81 3.625 7.24501 3.085 6.44501C2.715 5.89001 2.5 5.225 2.5 4.5C2.5 2.565 4.065 1 6 1C7.935 1 9.5 2.565 9.5 4.5Z" stroke="#1D1D1D" stroke-width="0.5" stroke-linecap="round" stroke-linejoin="round"/>
<path d="M10.625 9.235L9.80004 9.42999C9.61504 9.47499 9.47004 9.615 9.43004 9.8L9.25504 10.535C9.16004 10.935 8.65004 11.055 8.38504 10.74L6.00004 8L3.61504 10.745C3.35004 11.06 2.84004 10.94 2.74504 10.54L2.57004 9.80499C2.52504 9.61999 2.38004 9.475 2.20004 9.435L1.37504 9.24001C0.995039 9.15001 0.860039 8.67499 1.13504 8.39999L3.08504 6.45C3.62504 7.25 4.48004 7.81501 5.47504 7.96001C5.64504 7.99001 5.82004 8.005 6.00004 8.005C6.18004 8.005 6.35504 7.99001 6.52504 7.96001C7.52004 7.81501 8.37504 7.25 8.91504 6.45L10.865 8.39999C11.14 8.66999 11.005 9.145 10.625 9.235Z" stroke="#1D1D1D" stroke-width="0.5" stroke-linecap="round" stroke-linejoin="round"/>
<path d="M6.28999 2.99L6.58499 3.58C6.62499 3.66 6.72999 3.74 6.82499 3.755L7.35999 3.845C7.69999 3.9 7.77999 4.15 7.53499 4.395L7.11999 4.80999C7.04999 4.87999 7.00999 5.015 7.03499 5.115L7.15499 5.63C7.24999 6.035 7.03499 6.19499 6.67499 5.97999L6.17499 5.68499C6.08499 5.62999 5.93499 5.62999 5.84499 5.68499L5.34499 5.97999C4.98499 6.18999 4.76999 6.035 4.86499 5.63L4.98499 5.115C5.00499 5.02 4.96999 4.87999 4.89999 4.80999L4.48499 4.395C4.23999 4.15 4.31999 3.905 4.65999 3.845L5.19499 3.755C5.28499 3.74 5.38999 3.66 5.42999 3.58L5.72499 2.99C5.86999 2.67 6.12999 2.67 6.28999 2.99Z" stroke="#1D1D1D" stroke-width="0.5" stroke-linecap="round" stroke-linejoin="round"/>
</svg>
