<svg width="21" height="20" viewBox="0 0 21 20" fill="none" xmlns="http://www.w3.org/2000/svg">
<mask id="mask0_818_10132" style="mask-type:alpha" maskUnits="userSpaceOnUse" x="0" y="0" width="21" height="20">
<rect x="0.5" width="20" height="20" fill="#D9D9D9"/>
</mask>
<g mask="url(#mask0_818_10132)">
<path d="M10.5 18.3334C9.02778 18.3334 7.82639 18.1008 6.89583 17.6355C5.96528 17.1702 5.5 16.5695 5.5 15.8334C5.5 15.3473 5.70139 14.9237 6.10417 14.5626C6.50694 14.2015 7.0625 13.9167 7.77083 13.7084L8.25 15.2917C8.01389 15.3612 7.79861 15.448 7.60417 15.5522C7.40972 15.6563 7.27778 15.7501 7.20833 15.8334C7.38889 16.0556 7.80556 16.2501 8.45833 16.4167C9.11111 16.5834 9.79167 16.6667 10.5 16.6667C11.2083 16.6667 11.8924 16.5834 12.5521 16.4167C13.2118 16.2501 13.6319 16.0556 13.8125 15.8334C13.7431 15.7501 13.6111 15.6563 13.4167 15.5522C13.2222 15.448 13.0069 15.3612 12.7708 15.2917L13.25 13.7084C13.9583 13.9167 14.5104 14.2015 14.9062 14.5626C15.3021 14.9237 15.5 15.3473 15.5 15.8334C15.5 16.5695 15.0347 17.1702 14.1042 17.6355C13.1736 18.1008 11.9722 18.3334 10.5 18.3334ZM10.5 12.7709C10.75 12.3126 11.0139 11.8924 11.2917 11.5105C11.5694 11.1286 11.8403 10.764 12.1042 10.4167C12.6181 9.75008 13.0278 9.14939 13.3333 8.61467C13.6389 8.07994 13.7917 7.41675 13.7917 6.62508C13.7917 5.70842 13.4722 4.93064 12.8333 4.29175C12.1944 3.65286 11.4167 3.33341 10.5 3.33341C9.58333 3.33341 8.80556 3.65286 8.16667 4.29175C7.52778 4.93064 7.20833 5.70842 7.20833 6.62508C7.20833 7.41675 7.36111 8.07994 7.66667 8.61467C7.97222 9.14939 8.38194 9.75008 8.89583 10.4167C9.15972 10.764 9.43056 11.1286 9.70833 11.5105C9.98611 11.8924 10.25 12.3126 10.5 12.7709ZM10.5 15.8334C10.3472 15.8334 10.2083 15.7883 10.0833 15.698C9.95833 15.6077 9.86806 15.4862 9.8125 15.3334C9.49306 14.3473 9.09028 13.5209 8.60417 12.8542C8.11806 12.1876 7.64583 11.5487 7.1875 10.9376C6.74306 10.3265 6.35764 9.69453 6.03125 9.04175C5.70486 8.38897 5.54167 7.58342 5.54167 6.62508C5.54167 5.23619 6.02083 4.06258 6.97917 3.10425C7.9375 2.14591 9.11111 1.66675 10.5 1.66675C11.8889 1.66675 13.0625 2.14591 14.0208 3.10425C14.9792 4.06258 15.4583 5.23619 15.4583 6.62508C15.4583 7.58342 15.2986 8.38897 14.9792 9.04175C14.6597 9.69453 14.2708 10.3265 13.8125 10.9376C13.3681 11.5487 12.8993 12.1876 12.4062 12.8542C11.9132 13.5209 11.5069 14.3473 11.1875 15.3334C11.1319 15.4862 11.0417 15.6077 10.9167 15.698C10.7917 15.7883 10.6528 15.8334 10.5 15.8334ZM10.5 8.39592C10.9861 8.39592 11.4028 8.2223 11.75 7.87508C12.0972 7.52786 12.2708 7.11119 12.2708 6.62508C12.2708 6.13897 12.0972 5.7223 11.75 5.37508C11.4028 5.02786 10.9861 4.85425 10.5 4.85425C10.0139 4.85425 9.59722 5.02786 9.25 5.37508C8.90278 5.7223 8.72917 6.13897 8.72917 6.62508C8.72917 7.11119 8.90278 7.52786 9.25 7.87508C9.59722 8.2223 10.0139 8.39592 10.5 8.39592Z" fill="#11578A"/>
</g>
</svg>
