<svg width="58" height="15" viewBox="0 0 58 15" fill="none" xmlns="http://www.w3.org/2000/svg">
<mask id="mask0_818_9256" style="mask-type:alpha" maskUnits="userSpaceOnUse" x="0" y="0" width="15" height="15">
<rect width="15" height="15" fill="#D9D9D9"/>
</mask>
<g mask="url(#mask0_818_9256)">
<path d="M0 11.25V10.2656C0 9.81771 0.229167 9.45312 0.6875 9.17188C1.14583 8.89062 1.75 8.75 2.5 8.75C2.63542 8.75 2.76562 8.7526 2.89062 8.75781C3.01562 8.76302 3.13542 8.77604 3.25 8.79688C3.10417 9.01562 2.99479 9.24479 2.92188 9.48438C2.84896 9.72396 2.8125 9.97396 2.8125 10.2344V11.25H0ZM3.75 11.25V10.2344C3.75 9.90104 3.84115 9.59635 4.02344 9.32031C4.20573 9.04427 4.46354 8.80208 4.79688 8.59375C5.13021 8.38542 5.52865 8.22917 5.99219 8.125C6.45573 8.02083 6.95833 7.96875 7.5 7.96875C8.05208 7.96875 8.5599 8.02083 9.02344 8.125C9.48698 8.22917 9.88542 8.38542 10.2188 8.59375C10.5521 8.80208 10.8073 9.04427 10.9844 9.32031C11.1615 9.59635 11.25 9.90104 11.25 10.2344V11.25H3.75ZM12.1875 11.25V10.2344C12.1875 9.96354 12.1536 9.70833 12.0859 9.46875C12.0182 9.22917 11.9167 9.00521 11.7812 8.79688C11.8958 8.77604 12.013 8.76302 12.1328 8.75781C12.2526 8.7526 12.375 8.75 12.5 8.75C13.25 8.75 13.8542 8.88802 14.3125 9.16406C14.7708 9.4401 15 9.80729 15 10.2656V11.25H12.1875ZM5.07812 10H9.9375C9.83333 9.79167 9.54427 9.60938 9.07031 9.45312C8.59635 9.29688 8.07292 9.21875 7.5 9.21875C6.92708 9.21875 6.40365 9.29688 5.92969 9.45312C5.45573 9.60938 5.17188 9.79167 5.07812 10ZM2.5 8.125C2.15625 8.125 1.86198 8.0026 1.61719 7.75781C1.3724 7.51302 1.25 7.21875 1.25 6.875C1.25 6.52083 1.3724 6.22396 1.61719 5.98438C1.86198 5.74479 2.15625 5.625 2.5 5.625C2.85417 5.625 3.15104 5.74479 3.39062 5.98438C3.63021 6.22396 3.75 6.52083 3.75 6.875C3.75 7.21875 3.63021 7.51302 3.39062 7.75781C3.15104 8.0026 2.85417 8.125 2.5 8.125ZM12.5 8.125C12.1562 8.125 11.862 8.0026 11.6172 7.75781C11.3724 7.51302 11.25 7.21875 11.25 6.875C11.25 6.52083 11.3724 6.22396 11.6172 5.98438C11.862 5.74479 12.1562 5.625 12.5 5.625C12.8542 5.625 13.151 5.74479 13.3906 5.98438C13.6302 6.22396 13.75 6.52083 13.75 6.875C13.75 7.21875 13.6302 7.51302 13.3906 7.75781C13.151 8.0026 12.8542 8.125 12.5 8.125ZM7.5 7.5C6.97917 7.5 6.53646 7.31771 6.17188 6.95312C5.80729 6.58854 5.625 6.14583 5.625 5.625C5.625 5.09375 5.80729 4.64844 6.17188 4.28906C6.53646 3.92969 6.97917 3.75 7.5 3.75C8.03125 3.75 8.47656 3.92969 8.83594 4.28906C9.19531 4.64844 9.375 5.09375 9.375 5.625C9.375 6.14583 9.19531 6.58854 8.83594 6.95312C8.47656 7.31771 8.03125 7.5 7.5 7.5ZM7.5 6.25C7.67708 6.25 7.82552 6.1901 7.94531 6.07031C8.0651 5.95052 8.125 5.80208 8.125 5.625C8.125 5.44792 8.0651 5.29948 7.94531 5.17969C7.82552 5.0599 7.67708 5 7.5 5C7.32292 5 7.17448 5.0599 7.05469 5.17969C6.9349 5.29948 6.875 5.44792 6.875 5.625C6.875 5.80208 6.9349 5.95052 7.05469 6.07031C7.17448 6.1901 7.32292 6.25 7.5 6.25Z" fill="#11578A"/>
</g>
<path d="M27.5398 7.63636C27.5398 8.56818 27.3693 9.36932 27.0284 10.0398C26.6875 10.7074 26.2202 11.2216 25.6264 11.5824C25.0355 11.9403 24.3636 12.1193 23.6108 12.1193C22.8551 12.1193 22.1804 11.9403 21.5866 11.5824C20.9957 11.2216 20.5298 10.706 20.1889 10.0355C19.848 9.36506 19.6776 8.56534 19.6776 7.63636C19.6776 6.70455 19.848 5.90483 20.1889 5.23722C20.5298 4.56676 20.9957 4.05256 21.5866 3.6946C22.1804 3.33381 22.8551 3.15341 23.6108 3.15341C24.3636 3.15341 25.0355 3.33381 25.6264 3.6946C26.2202 4.05256 26.6875 4.56676 27.0284 5.23722C27.3693 5.90483 27.5398 6.70455 27.5398 7.63636ZM26.2358 7.63636C26.2358 6.92614 26.1207 6.32812 25.8906 5.84233C25.6634 5.35369 25.3509 4.98438 24.9531 4.73438C24.5582 4.48153 24.1108 4.35511 23.6108 4.35511C23.108 4.35511 22.6591 4.48153 22.2642 4.73438C21.8693 4.98438 21.5568 5.35369 21.3267 5.84233C21.0994 6.32812 20.9858 6.92614 20.9858 7.63636C20.9858 8.34659 21.0994 8.94602 21.3267 9.43466C21.5568 9.92045 21.8693 10.2898 22.2642 10.5426C22.6591 10.7926 23.108 10.9176 23.6108 10.9176C24.1108 10.9176 24.5582 10.7926 24.9531 10.5426C25.3509 10.2898 25.6634 9.92045 25.8906 9.43466C26.1207 8.94602 26.2358 8.34659 26.2358 7.63636ZM32.1942 5.45455V6.47727H28.4954V5.45455H32.1942ZM29.5096 12V4.69602C29.5096 4.28693 29.5991 3.94744 29.7781 3.67756C29.957 3.40483 30.1942 3.2017 30.4897 3.06818C30.7852 2.93182 31.1062 2.86364 31.4528 2.86364C31.7085 2.86364 31.9272 2.88494 32.109 2.92756C32.2908 2.96733 32.4258 3.00426 32.5138 3.03835L32.2156 4.0696C32.1559 4.05256 32.0792 4.03267 31.9854 4.00994C31.8917 3.98437 31.7781 3.97159 31.6445 3.97159C31.3349 3.97159 31.1133 4.0483 30.9798 4.2017C30.8491 4.35511 30.7837 4.5767 30.7837 4.86648V12H29.5096ZM36.6239 5.45455V6.47727H32.9251V5.45455H36.6239ZM33.9393 12V4.69602C33.9393 4.28693 34.0288 3.94744 34.2077 3.67756C34.3867 3.40483 34.6239 3.2017 34.9194 3.06818C35.2148 2.93182 35.5359 2.86364 35.8825 2.86364C36.1381 2.86364 36.3569 2.88494 36.5387 2.92756C36.7205 2.96733 36.8555 3.00426 36.9435 3.03835L36.6452 4.0696C36.5856 4.05256 36.5089 4.03267 36.4151 4.00994C36.3214 3.98437 36.2077 3.97159 36.0742 3.97159C35.7646 3.97159 35.543 4.0483 35.4094 4.2017C35.2788 4.35511 35.2134 4.5767 35.2134 4.86648V12H33.9393ZM39.2127 3.27273V12H37.9386V3.27273H39.2127ZM40.9268 12V5.45455H42.201V12H40.9268ZM41.5703 4.4446C41.3487 4.4446 41.1584 4.37074 40.9993 4.22301C40.843 4.07244 40.7649 3.89347 40.7649 3.68608C40.7649 3.47585 40.843 3.29687 40.9993 3.14915C41.1584 2.99858 41.3487 2.9233 41.5703 2.9233C41.7919 2.9233 41.9808 2.99858 42.1371 3.14915C42.2962 3.29687 42.3757 3.47585 42.3757 3.68608C42.3757 3.89347 42.2962 4.07244 42.1371 4.22301C41.9808 4.37074 41.7919 4.4446 41.5703 4.4446ZM45.1893 8.11364V12H43.9151V5.45455H45.1381V6.51989H45.2191C45.3697 6.1733 45.6055 5.89489 45.9265 5.68466C46.2504 5.47443 46.658 5.36932 47.1495 5.36932C47.5955 5.36932 47.9862 5.46307 48.3214 5.65057C48.6566 5.83523 48.9165 6.1108 49.1012 6.47727C49.2859 6.84375 49.3782 7.29687 49.3782 7.83665V12H48.104V7.99006C48.104 7.51562 47.9805 7.14489 47.7333 6.87784C47.4862 6.60795 47.1467 6.47301 46.7148 6.47301C46.4194 6.47301 46.1566 6.53693 45.9265 6.66477C45.6992 6.79261 45.5188 6.98011 45.3853 7.22727C45.2546 7.47159 45.1893 7.76705 45.1893 8.11364ZM53.908 12.1321C53.2631 12.1321 52.7077 11.9943 52.2418 11.7188C51.7788 11.4403 51.4208 11.0497 51.168 10.5469C50.918 10.0412 50.793 9.44886 50.793 8.76989C50.793 8.09943 50.918 7.50852 51.168 6.99716C51.4208 6.4858 51.7731 6.08665 52.2248 5.79972C52.6793 5.51278 53.2106 5.36932 53.8185 5.36932C54.1879 5.36932 54.5458 5.4304 54.8924 5.55256C55.239 5.67472 55.5501 5.86648 55.8256 6.12784C56.1012 6.3892 56.3185 6.72869 56.4776 7.14631C56.6367 7.56108 56.7163 8.06534 56.7163 8.65909V9.1108H51.5131V8.15625H55.4677C55.4677 7.82102 55.3995 7.52415 55.2631 7.26562C55.1268 7.00426 54.935 6.7983 54.6879 6.64773C54.4435 6.49716 54.1566 6.42188 53.8271 6.42188C53.4691 6.42188 53.1566 6.50994 52.8896 6.68608C52.6254 6.85937 52.4208 7.08665 52.2759 7.3679C52.1339 7.64631 52.0629 7.94886 52.0629 8.27557V9.02131C52.0629 9.45881 52.1396 9.83097 52.293 10.1378C52.4492 10.4446 52.6665 10.679 52.945 10.8409C53.2234 11 53.5487 11.0795 53.9208 11.0795C54.1623 11.0795 54.3825 11.0455 54.5813 10.9773C54.7802 10.9062 54.9521 10.8011 55.0969 10.6619C55.2418 10.5227 55.3526 10.3509 55.4293 10.1463L56.6353 10.3636C56.5387 10.7187 56.3654 11.0298 56.1154 11.2969C55.8683 11.5611 55.5572 11.767 55.1822 11.9148C54.81 12.0597 54.3853 12.1321 53.908 12.1321Z" fill="#11578A"/>
</svg>
