<svg width="56" height="15" viewBox="0 0 56 15" fill="none" xmlns="http://www.w3.org/2000/svg">
<mask id="mask0_818_9181" style="mask-type:alpha" maskUnits="userSpaceOnUse" x="0" y="0" width="15" height="15">
<rect width="15" height="15" fill="#D9D9D9"/>
</mask>
<g mask="url(#mask0_818_9181)">
<path d="M10 13.75V12.3438C9.41667 12.1562 8.92708 11.8229 8.53125 11.3438C8.13542 10.8646 7.90625 10.3125 7.84375 9.6875H9.09375C9.17708 10.1354 9.38802 10.5078 9.72656 10.8047C10.0651 11.1016 10.4688 11.25 10.9375 11.25H12.8125C13.0729 11.25 13.2943 11.3411 13.4766 11.5234C13.6589 11.7057 13.75 11.9271 13.75 12.1875V13.75H10ZM11.875 10.625C11.5312 10.625 11.237 10.5026 10.9922 10.2578C10.7474 10.013 10.625 9.71875 10.625 9.375C10.625 9.03125 10.7474 8.73698 10.9922 8.49219C11.237 8.2474 11.5312 8.125 11.875 8.125C12.2188 8.125 12.513 8.2474 12.7578 8.49219C13.0026 8.73698 13.125 9.03125 13.125 9.375C13.125 9.71875 13.0026 10.013 12.7578 10.2578C12.513 10.5026 12.2188 10.625 11.875 10.625ZM5.625 8.75C5.625 7.1875 6.17188 5.85938 7.26562 4.76562C8.35938 3.67188 9.6875 3.125 11.25 3.125V4.375C10.0312 4.375 8.9974 4.79948 8.14844 5.64844C7.29948 6.4974 6.875 7.53125 6.875 8.75H5.625ZM8.125 8.75C8.125 7.88542 8.42969 7.14844 9.03906 6.53906C9.64844 5.92969 10.3854 5.625 11.25 5.625V6.875C10.7292 6.875 10.2865 7.05729 9.92188 7.42188C9.55729 7.78646 9.375 8.22917 9.375 8.75H8.125ZM1.25 6.875V5.3125C1.25 5.05208 1.34115 4.83073 1.52344 4.64844C1.70573 4.46615 1.92708 4.375 2.1875 4.375H4.0625C4.53125 4.375 4.9349 4.22656 5.27344 3.92969C5.61198 3.63281 5.82292 3.26042 5.90625 2.8125H7.15625C7.09375 3.4375 6.86458 3.98958 6.46875 4.46875C6.07292 4.94792 5.58333 5.28125 5 5.46875V6.875H1.25ZM3.125 3.75C2.78125 3.75 2.48698 3.6276 2.24219 3.38281C1.9974 3.13802 1.875 2.84375 1.875 2.5C1.875 2.15625 1.9974 1.86198 2.24219 1.61719C2.48698 1.3724 2.78125 1.25 3.125 1.25C3.46875 1.25 3.76302 1.3724 4.00781 1.61719C4.2526 1.86198 4.375 2.15625 4.375 2.5C4.375 2.84375 4.2526 3.13802 4.00781 3.38281C3.76302 3.6276 3.46875 3.75 3.125 3.75Z" fill="#11578A"/>
</g>
<path d="M27.5398 7.63636C27.5398 8.56818 27.3693 9.36932 27.0284 10.0398C26.6875 10.7074 26.2202 11.2216 25.6264 11.5824C25.0355 11.9403 24.3636 12.1193 23.6108 12.1193C22.8551 12.1193 22.1804 11.9403 21.5866 11.5824C20.9957 11.2216 20.5298 10.706 20.1889 10.0355C19.848 9.36506 19.6776 8.56534 19.6776 7.63636C19.6776 6.70455 19.848 5.90483 20.1889 5.23722C20.5298 4.56676 20.9957 4.05256 21.5866 3.6946C22.1804 3.33381 22.8551 3.15341 23.6108 3.15341C24.3636 3.15341 25.0355 3.33381 25.6264 3.6946C26.2202 4.05256 26.6875 4.56676 27.0284 5.23722C27.3693 5.90483 27.5398 6.70455 27.5398 7.63636ZM26.2358 7.63636C26.2358 6.92614 26.1207 6.32812 25.8906 5.84233C25.6634 5.35369 25.3509 4.98438 24.9531 4.73438C24.5582 4.48153 24.1108 4.35511 23.6108 4.35511C23.108 4.35511 22.6591 4.48153 22.2642 4.73438C21.8693 4.98438 21.5568 5.35369 21.3267 5.84233C21.0994 6.32812 20.9858 6.92614 20.9858 7.63636C20.9858 8.34659 21.0994 8.94602 21.3267 9.43466C21.5568 9.92045 21.8693 10.2898 22.2642 10.5426C22.6591 10.7926 23.108 10.9176 23.6108 10.9176C24.1108 10.9176 24.5582 10.7926 24.9531 10.5426C25.3509 10.2898 25.6634 9.92045 25.8906 9.43466C26.1207 8.94602 26.2358 8.34659 26.2358 7.63636ZM30.3533 8.11364V12H29.0792V5.45455H30.3022V6.51989H30.3832C30.5337 6.1733 30.7695 5.89489 31.0906 5.68466C31.4144 5.47443 31.8221 5.36932 32.3136 5.36932C32.7596 5.36932 33.1502 5.46307 33.4854 5.65057C33.8207 5.83523 34.0806 6.1108 34.2653 6.47727C34.4499 6.84375 34.5423 7.29687 34.5423 7.83665V12H33.2681V7.99006C33.2681 7.51562 33.1445 7.14489 32.8974 6.87784C32.6502 6.60795 32.3107 6.47301 31.8789 6.47301C31.5835 6.47301 31.3207 6.53693 31.0906 6.66477C30.8633 6.79261 30.6829 6.98011 30.5494 7.22727C30.4187 7.47159 30.3533 7.76705 30.3533 8.11364ZM37.5252 3.27273V12H36.2511V3.27273H37.5252ZM39.2393 12V5.45455H40.5135V12H39.2393ZM39.8828 4.4446C39.6612 4.4446 39.4709 4.37074 39.3118 4.22301C39.1555 4.07244 39.0774 3.89347 39.0774 3.68608C39.0774 3.47585 39.1555 3.29687 39.3118 3.14915C39.4709 2.99858 39.6612 2.9233 39.8828 2.9233C40.1044 2.9233 40.2933 2.99858 40.4496 3.14915C40.6087 3.29687 40.6882 3.47585 40.6882 3.68608C40.6882 3.89347 40.6087 4.07244 40.4496 4.22301C40.2933 4.37074 40.1044 4.4446 39.8828 4.4446ZM43.5018 8.11364V12H42.2276V5.45455H43.4506V6.51989H43.5316C43.6822 6.1733 43.918 5.89489 44.239 5.68466C44.5629 5.47443 44.9705 5.36932 45.462 5.36932C45.908 5.36932 46.2987 5.46307 46.6339 5.65057C46.9691 5.83523 47.229 6.1108 47.4137 6.47727C47.5984 6.84375 47.6907 7.29687 47.6907 7.83665V12H46.4165V7.99006C46.4165 7.51562 46.293 7.14489 46.0458 6.87784C45.7987 6.60795 45.4592 6.47301 45.0273 6.47301C44.7319 6.47301 44.4691 6.53693 44.239 6.66477C44.0117 6.79261 43.8313 6.98011 43.6978 7.22727C43.5671 7.47159 43.5018 7.76705 43.5018 8.11364ZM52.2205 12.1321C51.5756 12.1321 51.0202 11.9943 50.5543 11.7188C50.0913 11.4403 49.7333 11.0497 49.4805 10.5469C49.2305 10.0412 49.1055 9.44886 49.1055 8.76989C49.1055 8.09943 49.2305 7.50852 49.4805 6.99716C49.7333 6.4858 50.0856 6.08665 50.5373 5.79972C50.9918 5.51278 51.5231 5.36932 52.131 5.36932C52.5004 5.36932 52.8583 5.4304 53.2049 5.55256C53.5515 5.67472 53.8626 5.86648 54.1381 6.12784C54.4137 6.3892 54.631 6.72869 54.7901 7.14631C54.9492 7.56108 55.0288 8.06534 55.0288 8.65909V9.1108H49.8256V8.15625H53.7802C53.7802 7.82102 53.712 7.52415 53.5756 7.26562C53.4393 7.00426 53.2475 6.7983 53.0004 6.64773C52.756 6.49716 52.4691 6.42188 52.1396 6.42188C51.7816 6.42188 51.4691 6.50994 51.2021 6.68608C50.9379 6.85937 50.7333 7.08665 50.5884 7.3679C50.4464 7.64631 50.3754 7.94886 50.3754 8.27557V9.02131C50.3754 9.45881 50.4521 9.83097 50.6055 10.1378C50.7617 10.4446 50.979 10.679 51.2575 10.8409C51.5359 11 51.8612 11.0795 52.2333 11.0795C52.4748 11.0795 52.695 11.0455 52.8938 10.9773C53.0927 10.9062 53.2646 10.8011 53.4094 10.6619C53.5543 10.5227 53.6651 10.3509 53.7418 10.1463L54.9478 10.3636C54.8512 10.7187 54.6779 11.0298 54.4279 11.2969C54.1808 11.5611 53.8697 11.767 53.4947 11.9148C53.1225 12.0597 52.6978 12.1321 52.2205 12.1321Z" fill="#11578A"/>
</svg>
