<svg width="21" height="20" viewBox="0 0 21 20" fill="none" xmlns="http://www.w3.org/2000/svg">
<path d="M10.5999 10.65C10.5416 10.6417 10.4666 10.6417 10.3999 10.65C8.93327 10.6 7.7666 9.4 7.7666 7.925C7.7666 6.41667 8.98327 5.19167 10.4999 5.19167C12.0083 5.19167 13.2333 6.41667 13.2333 7.925C13.2249 9.4 12.0666 10.6 10.5999 10.65Z" stroke="#8BC523" stroke-width="1.5" stroke-linecap="round" stroke-linejoin="round"/>
<path d="M16.1166 16.15C14.6333 17.5083 12.6666 18.3333 10.5 18.3333C8.3333 18.3333 6.36663 17.5083 4.8833 16.15C4.96663 15.3667 5.46663 14.6 6.3583 14C8.64163 12.4833 12.375 12.4833 14.6416 14C15.5333 14.6 16.0333 15.3667 16.1166 16.15Z" stroke="#8BC523" stroke-width="1.5" stroke-linecap="round" stroke-linejoin="round"/>
<path d="M10.5001 18.3333C15.1025 18.3333 18.8334 14.6024 18.8334 10C18.8334 5.39763 15.1025 1.66667 10.5001 1.66667C5.89771 1.66667 2.16675 5.39763 2.16675 10C2.16675 14.6024 5.89771 18.3333 10.5001 18.3333Z" stroke="#8BC523" stroke-width="1.5" stroke-linecap="round" stroke-linejoin="round"/>
</svg>
