<svg width="21" height="20" viewBox="0 0 21 20" fill="none" xmlns="http://www.w3.org/2000/svg">
<path d="M10.6001 10.65C10.5417 10.6417 10.4667 10.6417 10.4001 10.65C8.93339 10.6 7.76672 9.39998 7.76672 7.92498C7.76672 6.41665 8.98339 5.19165 10.5001 5.19165C12.0084 5.19165 13.2334 6.41665 13.2334 7.92498C13.2251 9.39998 12.0667 10.6 10.6001 10.65Z" stroke="#9A9A9A" stroke-width="1.5" stroke-linecap="round" stroke-linejoin="round"/>
<path d="M16.1166 16.15C14.6333 17.5084 12.6666 18.3334 10.5 18.3334C8.3333 18.3334 6.36663 17.5084 4.8833 16.15C4.96663 15.3667 5.46663 14.6 6.3583 14C8.64163 12.4834 12.375 12.4834 14.6416 14C15.5333 14.6 16.0333 15.3667 16.1166 16.15Z" stroke="#9A9A9A" stroke-width="1.5" stroke-linecap="round" stroke-linejoin="round"/>
<path d="M10.5 18.3333C15.1023 18.3333 18.8333 14.6023 18.8333 9.99996C18.8333 5.39759 15.1023 1.66663 10.5 1.66663C5.89759 1.66663 2.16663 5.39759 2.16663 9.99996C2.16663 14.6023 5.89759 18.3333 10.5 18.3333Z" stroke="#9A9A9A" stroke-width="1.5" stroke-linecap="round" stroke-linejoin="round"/>
</svg>
