<svg width="128" height="129" viewBox="0 0 128 129" fill="none" xmlns="http://www.w3.org/2000/svg">
<g clip-path="url(#clip0_1086_10178)">
<path d="M2.73155 63.7281C2.72855 74.5666 5.56055 85.1496 10.9456 94.4776L2.21655 126.349L34.8326 117.797C43.8537 122.708 53.9613 125.281 64.2326 125.282H64.2596C98.1671 125.282 125.769 97.6901 125.783 63.7766C125.79 47.3431 119.396 31.8901 107.779 20.2641C96.1636 8.63907 80.7161 2.23357 64.2571 2.22607C30.3456 2.22607 2.74605 29.8161 2.73205 63.7281" fill="url(#paint0_linear_1086_10178)"/>
<path d="M0.535 63.708C0.5315 74.9365 3.465 85.898 9.042 95.56L0 128.574L33.7855 119.715C43.0945 124.79 53.5755 127.466 64.2405 127.47H64.268C99.392 127.47 127.985 98.8865 128 63.759C128.006 46.735 121.382 30.7265 109.35 18.684C97.3165 6.643 81.3165 0.007 64.268 0C29.138 0 0.549 28.58 0.535 63.708ZM20.655 93.896L19.3935 91.8935C14.0905 83.4615 11.2915 73.7175 11.2955 63.712C11.307 34.5145 35.069 10.76 64.288 10.76C78.438 10.766 91.736 16.282 101.738 26.29C111.739 36.299 117.243 49.604 117.24 63.755C117.227 92.9525 93.464 116.71 64.268 116.71H64.247C54.7405 116.705 45.417 114.152 37.286 109.327L35.351 108.18L15.302 113.437L20.655 93.8955V93.896Z" fill="url(#paint1_linear_1086_10178)"/>
<path d="M48.339 37.074C47.146 34.4225 45.8905 34.369 44.756 34.3225C43.827 34.2825 42.765 34.2855 41.704 34.2855C40.642 34.2855 38.9165 34.685 37.458 36.2775C35.998 37.8715 31.884 41.7235 31.884 49.558C31.884 57.393 37.5905 64.9645 38.386 66.028C39.1825 67.0895 49.4025 83.6814 65.5885 90.0644C79.0405 95.3689 81.778 94.3139 84.6975 94.0479C87.6175 93.7829 94.1195 90.197 95.446 86.4785C96.7735 82.7605 96.7735 79.5735 96.3755 78.9075C95.9775 78.244 94.9155 77.8454 93.323 77.0494C91.73 76.2529 83.901 72.4005 82.4415 71.869C80.9815 71.338 79.92 71.073 78.858 72.6675C77.796 74.2595 74.7465 77.8455 73.817 78.9075C72.8885 79.972 71.959 80.1044 70.367 79.3079C68.7735 78.5089 63.645 76.8294 57.5605 71.4049C52.8265 67.1839 49.6305 61.9715 48.7015 60.377C47.7725 58.785 48.602 57.922 49.4005 57.1285C50.116 56.415 50.9935 55.269 51.7905 54.3395C52.5845 53.4095 52.8495 52.746 53.3805 51.684C53.912 50.621 53.646 49.691 53.2485 48.8945C52.8495 48.098 49.755 40.2225 48.339 37.074Z" fill="white"/>
</g>
<defs>
<linearGradient id="paint0_linear_1086_10178" x1="6180.54" y1="12414.5" x2="6180.54" y2="2.22607" gradientUnits="userSpaceOnUse">
<stop stop-color="#1FAF38"/>
<stop offset="1" stop-color="#60D669"/>
</linearGradient>
<linearGradient id="paint1_linear_1086_10178" x1="6400" y1="12857.4" x2="6400" y2="0" gradientUnits="userSpaceOnUse">
<stop stop-color="#F9F9F9"/>
<stop offset="1" stop-color="white"/>
</linearGradient>
<clipPath id="clip0_1086_10178">
<rect width="128" height="129" fill="white"/>
</clipPath>
</defs>
</svg>
