<svg width="130" height="30" viewBox="0 0 130 30" fill="none" xmlns="http://www.w3.org/2000/svg">
<g clip-path="url(#clip0_1081_10176)">
<path d="M27.2879 29.4118H4.15093C2.63562 29.4118 1.15712 28.5905 0.454817 27.2095C-0.357937 25.6046 -0.0626438 23.701 1.19394 22.4692L17.3089 6.1959H5.74013C2.56148 6.1959 0.0112429 3.58308 0.0112429 0.410256H21.3373C22.8526 0.410256 24.3309 1.23154 25.0332 2.61256C25.8465 4.21744 25.5507 6.12103 24.2941 7.35256L8.17941 23.6264H21.5222C24.7006 23.6264 27.2879 26.2392 27.2879 29.4118ZM118.875 0C115.548 0 112.592 1.45564 110.522 3.76974C108.452 1.45564 105.495 0 102.169 0C96.0335 0 91.0069 5.3 91.0069 11.4959V29.4118C94.1853 29.4118 96.7356 26.799 96.7356 23.6264V11.4587C96.7356 8.47256 99.0271 5.93461 101.984 5.82282C105.089 5.71077 107.639 8.21128 107.639 11.3092V23.6264C107.639 26.8364 110.226 29.4118 113.368 29.4118V11.4213C113.368 8.43538 115.659 5.89718 118.616 5.78538C121.721 5.67333 124.271 8.1741 124.271 11.2721V23.589C124.271 26.7992 126.858 29.3744 130 29.3744V11.459C130.037 5.3 125.01 0 118.875 0ZM56.2644 14.9297C56.2644 23.1785 49.6486 29.8595 41.4805 29.8595C33.3123 29.8595 26.6965 23.1785 26.6965 14.9297C26.6965 6.68103 33.3123 0 41.4805 0C49.6486 0 56.2644 6.68103 56.2644 14.9297ZM50.5355 14.9297C50.5355 9.89103 46.47 5.78538 41.4805 5.78538C36.491 5.78538 32.4252 9.89103 32.4252 14.9297C32.4252 19.9687 36.491 24.0744 41.4805 24.0744C46.47 24.0744 50.5355 19.9687 50.5355 14.9297ZM88.1238 14.9297C88.1238 23.1785 81.508 29.8595 73.3399 29.8595C65.1717 29.8595 58.5559 23.1785 58.5559 14.9297C58.5559 6.68103 65.1717 0 73.3399 0C81.508 0 88.1241 6.68103 88.1241 14.9297H88.1238ZM82.3952 14.9297C82.3952 9.89103 78.3296 5.78538 73.3399 5.78538C68.3506 5.78538 64.2848 9.89103 64.2848 14.9297C64.2848 19.9687 68.3504 24.0744 73.3399 24.0744C78.3296 24.0744 82.3952 19.9687 82.3952 14.9297Z" fill="#0B5CFF"/>
</g>
<defs>
<clipPath id="clip0_1081_10176">
<rect width="130" height="30" fill="white"/>
</clipPath>
</defs>
</svg>
